<?xml version="1.0" encoding="UTF-8"?>
<svg version="1.1" xmlns="http://www.w3.org/2000/svg" width="271" height="224">
<path d="M0 0 C6.10193854 2.97332127 11.89463275 6.46840753 17.66601562 10.03173828 C18.81043316 10.72853966 19.95494872 11.4251801 21.09960938 12.12158203 C23.11357066 13.36033845 25.1213623 14.60917811 27.12304688 15.86767578 C32.66244032 19.30160586 38.37534085 22.44885041 44.05029297 25.65136719 C49.74812982 28.88252717 55.24979006 32.24592421 60.60742188 36.02001953 C62.59552218 37.20480996 62.59552218 37.20480996 64.74414062 36.92236328 C67.14140229 35.81143715 68.21458728 34.53712071 69.85351562 32.46923828 C80.7097274 19.55727577 94.88141851 10.68017656 111.66601562 8.03173828 C115.62882892 7.73901672 119.56866886 7.70668346 123.54101562 7.71923828 C125.05888672 7.69506836 125.05888672 7.69506836 126.60742188 7.67041016 C142.82585542 7.66002704 157.17543262 13.95261021 169.66601562 24.03173828 C170.44847656 24.64919922 171.2309375 25.26666016 172.03710938 25.90283203 C190.48740866 41.28341081 199.71289797 63.95407845 203.66601562 87.03173828 C203.85164062 87.99466797 204.03726563 88.95759766 204.22851562 89.94970703 C207.4105423 112.36594855 201.90343046 138.00568456 189.66601562 157.03173828 C189.10527344 157.90701172 188.54453125 158.78228516 187.96679688 159.68408203 C175.70288482 177.60430573 158.70168182 190.78920029 137.22851562 195.40673828 C118.73040691 198.07288471 99.04569437 195.06074923 83.66601562 183.96923828 C81.98500157 182.67516496 80.31765069 181.36310437 78.66601562 180.03173828 C77.81136719 179.38720703 76.95671875 178.74267578 76.07617188 178.07861328 C72.92449426 175.40198594 70.7902578 172.31329017 68.41210938 168.95751953 C66.49414139 166.84217676 65.45199454 166.39141608 62.66601562 166.03173828 C62.66601562 166.69173828 62.66601562 167.35173828 62.66601562 168.03173828 C62.05532227 168.37205078 61.44462891 168.71236328 60.81542969 169.06298828 C46.93737788 176.80217624 33.10150592 184.60850533 19.32324219 192.52392578 C-4.55696287 206.2216729 -4.55696287 206.2216729 -15.33398438 205.03173828 C-20.98655737 202.89242844 -24.984731 198.95711089 -28.33398438 194.03173828 C-30.01501479 189.15310374 -30.58619124 184.89717092 -30.59468079 179.75196838 C-30.59850633 179.05334448 -30.60233188 178.35472058 -30.60627335 177.63492626 C-30.61652807 175.31212192 -30.61262569 172.98956825 -30.60864258 170.66674805 C-30.6129932 168.99398573 -30.61817752 167.3212254 -30.62413025 165.64846802 C-30.63749313 161.11747559 -30.63810199 156.58656672 -30.63556695 152.05555844 C-30.63449549 148.26831422 -30.63938503 144.48108678 -30.64417237 140.69384617 C-30.65525798 131.75722901 -30.65571015 122.8206539 -30.6496582 113.8840332 C-30.64361715 104.67439909 -30.65593493 95.4649177 -30.67722827 86.25530964 C-30.69485777 78.33832628 -30.70084354 70.42139148 -30.69759053 62.50438923 C-30.69577983 57.78025878 -30.69839265 53.05623732 -30.71230507 48.33212471 C-30.7249009 43.889067 -30.72292274 39.44624705 -30.70989418 35.0031929 C-30.70753275 33.37625103 -30.71024752 31.74929233 -30.7185173 30.12236977 C-30.76300134 20.68793238 -30.72030007 13.11121183 -25.33398438 5.03173828 C-24.67398437 5.03173828 -24.01398437 5.03173828 -23.33398438 5.03173828 C-23.33398438 4.37173828 -23.33398438 3.71173828 -23.33398438 3.03173828 C-15.94176489 -1.60651708 -8.3832768 -3.4778322 0 0 Z M96.25976562 43.03955078 C94.48525014 45.25769513 93.59082956 47.35902601 92.66601562 50.03173828 C92.00601563 50.03173828 91.34601563 50.03173828 90.66601562 50.03173828 C90.33601563 51.02173828 90.00601563 52.01173828 89.66601562 53.03173828 C95.15878659 56.85633436 100.75756038 60.25096278 106.65820312 63.40673828 C111.77543181 66.17137092 116.80320701 69.09292456 121.84570312 71.99072266 C123.67734802 73.03821914 125.51447953 74.07540548 127.35351562 75.10986328 C130.80804891 77.05543499 134.24148939 79.03375038 137.66601562 81.03173828 C138.56964844 81.55638672 139.47328125 82.08103516 140.40429688 82.62158203 C145.56147147 85.80366848 148.11861887 88.51237864 150.66601562 94.03173828 C150.99601562 94.69173828 151.32601562 95.35173828 151.66601562 96.03173828 C152.24327638 102.72574281 152.06256534 108.17561809 148.66601562 114.03173828 C139.66015557 123.80732996 126.343375 129.47869666 114.85986328 135.87255859 C101.35768717 142.71022367 101.35768717 142.71022367 89.66601562 152.03173828 C89.99601562 152.69173828 90.32601562 153.35173828 90.66601562 154.03173828 C91.32601562 154.03173828 91.98601562 154.03173828 92.66601562 154.03173828 C92.85164063 154.71236328 93.03726563 155.39298828 93.22851562 156.09423828 C96.86852302 163.53251427 104.60760917 169.01457448 111.66601562 173.03173828 C117.46360827 174.85023784 121.44167498 172.61414028 126.66601562 170.03173828 C134.56626507 165.67647256 141.23649464 160.33245417 147.66601562 154.03173828 C148.71595703 153.0359375 148.71595703 153.0359375 149.78710938 152.02001953 C158.03762482 143.57650957 163.76606455 131.4353053 166.66601562 120.03173828 C166.86839844 119.30599609 167.07078125 118.58025391 167.27929688 117.83251953 C171.54566095 100.27367417 168.24987896 81.09049695 159.71289062 65.34814453 C149.93241126 49.50152816 136.06745881 35.28929348 117.66601562 30.03173828 C109.02326483 29.13814208 101.97641332 37.39318974 96.25976562 43.03955078 Z M15.98100281 64.63063049 C14.218244 67.84934924 14.29869705 70.21544303 14.30957031 73.87988281 C14.30752594 74.56000427 14.30548157 75.24012573 14.30337524 75.94085693 C14.30037414 78.18236432 14.31882077 80.4231312 14.33789062 82.66455078 C14.3409491 84.22345803 14.34282455 85.78236801 14.34356689 87.34127808 C14.34816545 90.60457861 14.36257605 93.86763174 14.38476562 97.13085938 C14.41309456 101.31865021 14.42398234 105.50624666 14.42844772 109.69412422 C14.43259894 112.9111018 14.44241316 116.12803993 14.45432281 119.34499741 C14.46002818 120.88960326 14.464786 122.43421291 14.46858978 123.97882462 C14.47544537 126.13341227 14.48907316 128.2878446 14.50488281 130.44238281 C14.51171082 131.66941925 14.51853882 132.89645569 14.52557373 134.16067505 C14.4699716 136.97546662 14.4699716 136.97546662 15.66601562 139.03173828 C16.32601562 139.03173828 16.98601562 139.03173828 17.66601562 139.03173828 C17.66601562 139.69173828 17.66601562 140.35173828 17.66601562 141.03173828 C24.92237041 141.99925225 29.60430915 138.7228156 35.66601562 135.03173828 C36.24883301 134.67885742 36.83165039 134.32597656 37.43212891 133.96240234 C41.19505963 131.68116948 44.93674906 129.36771765 48.66601562 127.03173828 C48.52164063 125.96697266 48.37726563 124.90220703 48.22851562 123.80517578 C46.51293724 110.63765376 46.03449947 98.2696652 48.22851562 85.09033203 C48.84803162 81.06155633 48.84803162 81.06155633 48.66601562 77.03173828 C46.55574952 75.04110324 46.55574952 75.04110324 43.66210938 73.48095703 C42.61087891 72.86542969 41.55964844 72.24990234 40.4765625 71.61572266 C39.36345703 70.98988281 38.25035156 70.36404297 37.10351562 69.71923828 C35.47446289 68.75147461 35.47446289 68.75147461 33.8125 67.76416016 C25.0169219 62.18513255 25.0169219 62.18513255 15.98100281 64.63063049 Z M77.66601562 95.03173828 C77.66601562 100.31173828 77.66601562 105.59173828 77.66601562 111.03173828 C79.23351562 110.28923828 80.80101562 109.54673828 82.41601562 108.78173828 C83.29773438 108.36408203 84.17945313 107.94642578 85.08789062 107.51611328 C87.75537092 105.98029129 89.59709625 104.29401461 91.66601562 102.03173828 C89.89686087 101.04954201 88.12562994 100.07108469 86.35351562 99.09423828 C85.36738281 98.54896484 84.38125 98.00369141 83.36523438 97.44189453 C80.68039347 95.94819596 80.68039347 95.94819596 77.66601562 95.03173828 Z " fill="#3890E0" transform="translate(52.333984375,11.96826171875)"/>
<path d="M0 0 C1.51787109 -0.02416992 1.51787109 -0.02416992 3.06640625 -0.04882812 C19.2848398 -0.05921125 33.63441699 6.23337193 46.125 16.3125 C46.90746094 16.92996094 47.68992187 17.54742187 48.49609375 18.18359375 C66.94639304 33.56417253 76.17188234 56.23484016 80.125 79.3125 C80.310625 80.27542969 80.49625 81.23835938 80.6875 82.23046875 C83.86952668 104.64671027 78.36241484 130.28644628 66.125 149.3125 C65.56425781 150.18777344 65.00351563 151.06304687 64.42578125 151.96484375 C52.16186919 169.88506745 35.16066619 183.06996201 13.6875 187.6875 C-4.81060872 190.35364643 -24.49532125 187.34151095 -39.875 176.25 C-41.55601406 174.95592668 -43.22336494 173.64386608 -44.875 172.3125 C-45.72707031 171.66667969 -46.57914063 171.02085937 -47.45703125 170.35546875 C-49.88922658 168.3004798 -51.66579922 166.23632487 -53.5625 163.6875 C-55.26671238 161.41269766 -56.86385445 159.32364555 -58.875 157.3125 C-59.55031806 155.64931999 -60.2159159 153.98217972 -60.875 152.3125 C-61.80292956 150.7111587 -62.76266468 149.12791247 -63.75 147.5625 C-68.42528951 139.84997862 -71.24673465 132.64739274 -73.1640625 123.81640625 C-73.69700488 121.16577253 -73.69700488 121.16577253 -75.875 119.3125 C-76.35667997 116.70786014 -76.72225635 114.19005221 -77 111.5625 C-77.0827417 110.79534668 -77.1654834 110.02819336 -77.25073242 109.23779297 C-78.63839169 95.48099821 -77.29931481 82.8482577 -74.875 69.3125 C-67.45612471 72.35432729 -67.45612471 72.35432729 -64.3125 74.8125 C-61.32605839 77.04895288 -58.26896996 78.73968465 -54.875 80.3125 C-54.875 80.9725 -54.875 81.6325 -54.875 82.3125 C-54.153125 82.395 -53.43125 82.4775 -52.6875 82.5625 C-49.03931072 83.53535047 -47.42669408 84.4926618 -44.875 87.3125 C-44.43442486 90.52335229 -44.8311033 93.6043377 -45.1875 96.8125 C-45.82176948 104.66475614 -45.84029107 111.61414089 -43.875 119.3125 C-43.66746094 120.14523438 -43.45992187 120.97796875 -43.24609375 121.8359375 C-40.23434275 134.03936909 -40.23434275 134.03936909 -32.875 143.3125 C-32.875 144.3025 -32.875 145.2925 -32.875 146.3125 C-32.215 146.3125 -31.555 146.3125 -30.875 146.3125 C-29.75390625 147.74609375 -29.75390625 147.74609375 -28.4375 149.75 C-23.89953315 156.03592445 -17.16873557 162.3887851 -9.875 165.3125 C3.19414673 164.70463271 16.80596413 153.53003619 25.39453125 144.35546875 C38.57355436 128.79648661 45.92917519 108.88391396 44.34814453 88.39990234 C42.19850859 68.29116348 33.32880689 48.90068776 17.38671875 35.93359375 C5.09060207 26.91071738 5.09060207 26.91071738 -9.3125 23.1875 C-18.03101479 25.9407152 -24.31037047 33.3425176 -29.875 40.3125 C-30.37 41.3025 -30.37 41.3025 -30.875 42.3125 C-31.535 42.3125 -32.195 42.3125 -32.875 42.3125 C-32.875 42.9725 -32.875 43.6325 -32.875 44.3125 C-34.525 44.3125 -36.175 44.3125 -37.875 44.3125 C-38.205 43.3225 -38.535 42.3325 -38.875 41.3125 C-39.85533203 41.20615234 -39.85533203 41.20615234 -40.85546875 41.09765625 C-45.05204385 40.00643815 -48.46063903 37.92483486 -52.1875 35.75 C-52.92806641 35.32525391 -53.66863281 34.90050781 -54.43164062 34.46289062 C-56.24968118 33.41898347 -58.06283748 32.36657808 -59.875 31.3125 C-43.82127693 11.96570553 -25.7038324 -0.08123841 0 0 Z " fill="#FB8865" transform="translate(175.875,19.6875)"/>
<path d="M0 0 C2 3 2 3 3.1875 6.390625 C4.98279206 10.64662832 8.09021552 12.5394826 12 14.75 C12.69770508 15.16483643 13.39541016 15.57967285 14.11425781 16.00708008 C16.39844748 17.3579964 18.69803146 18.67964171 21 20 C22.62045276 20.94548244 24.24023728 21.89211106 25.859375 22.83984375 C29.83771738 25.16103903 33.82875153 27.45929231 37.82470703 29.75 C40.95405479 31.5482335 44.07113133 33.3668653 47.1875 35.1875 C48.12980469 35.73792969 49.07210937 36.28835937 50.04296875 36.85546875 C50.68878906 37.23316406 51.33460937 37.61085937 52 38 C51.401875 38.2475 50.80375 38.495 50.1875 38.75 C47.55134985 40.25637151 46.53872923 41.37351592 45 44 C44.56485869 47.31284051 44.56485869 47.31284051 44.65942383 51.06347656 C44.65898575 51.76631775 44.65854767 52.46915894 44.65809631 53.19329834 C44.66018126 55.50935948 44.68349741 57.8246908 44.70703125 60.140625 C44.71262827 61.74916183 44.71689787 63.35770378 44.71989441 64.96624756 C44.73133487 69.19468366 44.760795 73.42280937 44.79400635 77.65112305 C44.82472456 81.96789349 44.83840348 86.28471421 44.85351562 90.6015625 C44.88566562 99.06785058 44.93685211 107.53388665 45 116 C45.66 116 46.32 116 47 116 C47 116.66 47 117.32 47 118 C56.63283296 116.67133338 64.72157401 111.67435342 72.609375 106.18359375 C75.53731037 104.73397869 76.93907114 105.03799379 80 106 C80.185625 107.0209375 80.185625 107.0209375 80.375 108.0625 C82.59848201 118.51286547 87.07608145 128.58425189 93.31640625 137.2890625 C93.87199219 138.18367187 94.42757812 139.07828125 95 140 C94.67 140.99 94.34 141.98 94 143 C93.34 143 92.68 143 92 143 C92 143.66 92 144.32 92 145 C91.38930664 145.3403125 90.77861328 145.680625 90.14941406 146.03125 C76.27136226 153.77043796 62.43549029 161.57676705 48.65722656 169.4921875 C24.77702151 183.18993462 24.77702151 183.18993462 14 182 C7.85210812 179.67322852 2.93269604 174.86539209 0 169 C-0.0945492 166.78285217 -0.12189834 164.56275972 -0.12025452 162.34359741 C-0.12153615 161.30585361 -0.12153615 161.30585361 -0.12284368 160.2471453 C-0.12449709 157.91783003 -0.11897939 155.58858602 -0.11352539 153.25927734 C-0.11324346 151.5939789 -0.11340136 149.92868033 -0.1139679 148.26338196 C-0.11425565 143.73264233 -0.10836243 139.201929 -0.10139394 134.67119551 C-0.09515679 129.93994752 -0.09455631 125.20869898 -0.09336853 120.47744751 C-0.09025628 111.51372696 -0.08204432 102.55001855 -0.07201904 93.58630335 C-0.0608546 83.38330886 -0.05534662 73.18031379 -0.05032361 62.97731471 C-0.03986163 41.98486968 -0.02226424 20.99243561 0 0 Z " fill="#753EA7" transform="translate(23,35)"/>
<path d="M0 0 C2.2585077 1.44483658 4.38776037 2.96910256 6.5078125 4.609375 C7.43013672 5.3209375 7.43013672 5.3209375 8.37109375 6.046875 C19.0731815 14.77939893 26.32100274 25.92021542 31.5078125 38.609375 C31.806875 39.33769531 32.1059375 40.06601563 32.4140625 40.81640625 C38.86199923 58.19359574 38.06711561 78.92609659 33.5078125 96.609375 C33.31445312 97.47304687 33.12109375 98.33671875 32.921875 99.2265625 C31.52854618 104.74559223 29.12392455 109.64648153 26.5078125 114.671875 C25.99118042 115.67444336 25.99118042 115.67444336 25.46411133 116.69726562 C22.87507345 121.48695468 22.87507345 121.48695468 19.5078125 122.609375 C19.21261719 123.351875 18.91742188 124.094375 18.61328125 124.859375 C15.63684167 132.26366287 7.22397501 138.52700171 0.5078125 142.609375 C-2.4296875 143.421875 -2.4296875 143.421875 -4.4921875 143.609375 C-4.4921875 144.269375 -4.4921875 144.929375 -4.4921875 145.609375 C-10.7383965 148.34843185 -15.83019707 149.07595358 -22.6171875 148.984375 C-23.48472656 148.99597656 -24.35226563 149.00757813 -25.24609375 149.01953125 C-30.38950806 148.99604534 -34.06267636 148.51049252 -38.4921875 145.609375 C-38.8221875 144.949375 -39.1521875 144.289375 -39.4921875 143.609375 C-38.8115625 143.44824219 -38.1309375 143.28710938 -37.4296875 143.12109375 C-19.90396492 138.20363702 -4.7640153 125.05499198 4.5078125 109.609375 C14.92651294 90.85070522 17.19970164 70.62539842 11.82421875 49.93359375 C6.24264064 30.55013947 -7.0259508 15.65568577 -24.015625 5.41015625 C-29.28966972 2.6783196 -34.74465819 1.03920226 -40.4921875 -0.390625 C-29.55484302 -9.6453011 -11.5641655 -6.45273185 0 0 Z " fill="#7061C7" transform="translate(205.4921875,42.390625)"/>
<path d="M0 0 C0.12375 0.680625 0.2475 1.36125 0.375 2.0625 C2.59848201 12.51286547 7.07608145 22.58425189 13.31640625 31.2890625 C14.14978516 32.63097656 14.14978516 32.63097656 15 34 C14.67 34.99 14.34 35.98 14 37 C13.34 37 12.68 37 12 37 C12 37.66 12 38.32 12 39 C8.57602459 40.99007805 5.14373752 42.96490433 1.70336914 44.92651367 C-0.03493023 45.92171589 -1.76655599 46.92854564 -3.49804688 47.93554688 C-4.60341797 48.56396484 -5.70878906 49.19238281 -6.84765625 49.83984375 C-7.85836182 50.42113037 -8.86906738 51.00241699 -9.91040039 51.60131836 C-13.36786739 53.16653594 -16.21435094 53.79657278 -20 54 C-20.99 53.34 -21.98 52.68 -23 52 C-22.5020163 48.26512223 -22.12508244 46.18762365 -20 43 C-19.43879911 40.99382108 -19.43879911 40.99382108 -19.0625 38.8125 C-18.14090097 34.31509673 -16.70377719 30.25944297 -15 26 C-14.34 26 -13.68 26 -13 26 C-12.87753906 24.99839844 -12.75507812 23.99679688 -12.62890625 22.96484375 C-12.07030321 19.05462246 -11.05640242 15.35233077 -9.9375 11.5625 C-9.57527344 10.32628906 -9.21304688 9.09007812 -8.83984375 7.81640625 C-8.56269531 6.88699219 -8.28554687 5.95757812 -8 5 C-8.99 4.67 -9.98 4.34 -11 4 C-6.99509003 -0.13840697 -5.70470474 -1.35111428 0 0 Z " fill="#59377E" transform="translate(103,141)"/>
<path d="M0 0 C0 1.32 0 2.64 0 4 C-0.680625 4.103125 -1.36125 4.20625 -2.0625 4.3125 C-9.75575143 6.11304821 -16.34787241 9.57563332 -21 16 C-21.99 16.33 -22.98 16.66 -24 17 C-21.36 17.66 -18.72 18.32 -16 19 C-15.67 18.34 -15.34 17.68 -15 17 C-14.01 17.33 -13.02 17.66 -12 18 C-12 17.34 -12 16.68 -12 16 C-11.11646851 15.97812622 -11.11646851 15.97812622 -10.21508789 15.95581055 C-7.49696198 15.88046236 -4.77995058 15.78409616 -2.0625 15.6875 C-1.13630859 15.66494141 -0.21011719 15.64238281 0.74414062 15.61914062 C6.25747021 15.40634545 10.74504237 14.57141286 15.90795898 12.65698242 C19.1416865 11.64146594 22.19811748 11.71450828 25.5625 11.8125 C27.38974609 11.85310547 27.38974609 11.85310547 29.25390625 11.89453125 C30.16011719 11.92933594 31.06632812 11.96414062 32 12 C32 12.33 32 12.66 32 13 C30.37191406 13.18175781 30.37191406 13.18175781 28.7109375 13.3671875 C27.26558596 13.53612469 25.82027558 13.70541425 24.375 13.875 C23.66214844 13.95363281 22.94929688 14.03226563 22.21484375 14.11328125 C17.91797815 14.62575146 14.078793 15.46884427 10 17 C10 17.66 10 18.32 10 19 C8.52477647 20.12496925 6.99209667 21.17504285 5.4375 22.1875 C-1.09229709 26.63627111 -6.04312073 31.12752548 -10 38 C-10.66 38 -11.32 38 -12 38 C-12 38.66 -12 39.32 -12 40 C-13.65 40 -15.3 40 -17 40 C-17.33 39.01 -17.66 38.02 -18 37 C-18.65355469 36.92910156 -19.30710938 36.85820313 -19.98046875 36.78515625 C-24.17704385 35.69393815 -27.58563903 33.61233486 -31.3125 31.4375 C-32.05306641 31.01275391 -32.79363281 30.58800781 -33.55664062 30.15039062 C-35.37468118 29.10648347 -37.18783748 28.05407808 -39 27 C-11.72932331 -5.86466165 -11.72932331 -5.86466165 0 0 Z " fill="#FB648B" transform="translate(155,24)"/>
<path d="M0 0 C2.03446037 1.67385496 2.91948725 2.5571799 3.3984375 5.19140625 C3.39070313 5.97386719 3.38296875 6.75632813 3.375 7.5625 C3.38660156 8.74005859 3.38660156 8.74005859 3.3984375 9.94140625 C3.20121094 10.96041016 3.20121094 10.96041016 3 12 C2.01 12.66 1.02 13.32 0 14 C-0.495 13.505 -0.495 13.505 -1 13 C-1.33 13.66 -1.66 14.32 -2 15 C-2.66 15 -3.32 15 -4 15 C-4.9319181 19.34895112 -4.88932722 22.65217803 -4 27 C-4 27.66 -4 28.32 -4 29 C-4.66 29 -5.32 29 -6 29 C-6 29.66 -6 30.32 -6 31 C-5.34 31.33 -4.68 31.66 -4 32 C-4.66 33.32 -5.32 34.64 -6 36 C-5.01 35.67 -4.02 35.34 -3 35 C-2.505 34.01 -2.505 34.01 -2 33 C-1.01 33.33 -0.02 33.66 1 34 C-1.83053383 37.14503759 -4.06970648 38.5375652 -8 40 C-9.546875 40.928125 -9.546875 40.928125 -11.125 41.875 C-20.05160353 46.99240633 -28.67536587 49.21799525 -39 48 C-41.37890625 46.9765625 -41.37890625 46.9765625 -43 46 C-43 45.01 -43 44.02 -43 43 C-41.205625 42.319375 -41.205625 42.319375 -39.375 41.625 C-20.95196171 33.4175801 -7.60518192 18.4346806 0 0 Z " fill="#3896D9" transform="translate(215,141)"/>
<path d="M0 0 C3.39508576 2.62347536 4.31946979 5.92429709 5 10 C6.31761846 22.13388936 2.55194492 33.84985583 -4 44 C-4.99 44 -5.98 44 -7 44 C-11.90412247 32.15608158 -15.18037779 21.94140338 -16 9 C-10.83132665 5.37841255 -5.90372107 2.26099956 0 0 Z " fill="#17223C" transform="translate(145,115)"/>
<path d="M0 0 C2.2585077 1.44483658 4.38776037 2.96910256 6.5078125 4.609375 C7.43013672 5.3209375 7.43013672 5.3209375 8.37109375 6.046875 C19.0731815 14.77939893 26.32100274 25.92021542 31.5078125 38.609375 C31.806875 39.33769531 32.1059375 40.06601563 32.4140625 40.81640625 C38.37761417 56.88817801 38.27680219 77.05274172 34.5078125 93.609375 C34.1778125 93.609375 33.8478125 93.609375 33.5078125 93.609375 C33.5078125 80.409375 33.5078125 67.209375 33.5078125 53.609375 C32.8478125 53.609375 32.1878125 53.609375 31.5078125 53.609375 C30.8478125 49.319375 30.1878125 45.029375 29.5078125 40.609375 C28.8478125 40.609375 28.1878125 40.609375 27.5078125 40.609375 C26.5178125 38.629375 26.5178125 38.629375 25.5078125 36.609375 C24.5178125 36.609375 23.5278125 36.609375 22.5078125 36.609375 C22.7140625 35.908125 22.9203125 35.206875 23.1328125 34.484375 C23.75071857 29.74709511 22.10294359 26.50207163 19.5078125 22.609375 C17.44856111 21.88555033 17.44856111 21.88555033 15.5078125 21.609375 C15.6109375 20.866875 15.7140625 20.124375 15.8203125 19.359375 C15.7724462 16.39397548 15.7724462 16.39397548 13.1953125 14.296875 C10.61326343 12.34349093 10.61326343 12.34349093 7.5078125 12.609375 C6.8478125 12.279375 6.1878125 11.949375 5.5078125 11.609375 C5.5078125 10.949375 5.5078125 10.289375 5.5078125 9.609375 C4.8478125 9.609375 4.1878125 9.609375 3.5078125 9.609375 C3.5078125 8.289375 3.5078125 6.969375 3.5078125 5.609375 C2.24089743 4.93529192 0.96910501 4.27037003 -0.3046875 3.609375 C-1.01238281 3.238125 -1.72007812 2.866875 -2.44921875 2.484375 C-4.58139479 1.41252142 -4.58139479 1.41252142 -7.4921875 1.609375 C-8.1521875 1.609375 -8.8121875 1.609375 -9.4921875 1.609375 C-9.4921875 0.949375 -9.4921875 0.289375 -9.4921875 -0.390625 C-11.32919539 -1.16304769 -11.32919539 -1.16304769 -13.4921875 -1.390625 C-15.13812889 0.00526254 -15.13812889 0.00526254 -16.4921875 1.609375 C-17.1521875 1.609375 -17.8121875 1.609375 -18.4921875 1.609375 C-18.1621875 2.929375 -17.8321875 4.249375 -17.4921875 5.609375 C-16.5021875 5.609375 -15.5121875 5.609375 -14.4921875 5.609375 C-14.4921875 6.269375 -14.4921875 6.929375 -14.4921875 7.609375 C-13.1721875 7.609375 -11.8521875 7.609375 -10.4921875 7.609375 C-10.1621875 8.599375 -9.8321875 9.589375 -9.4921875 10.609375 C-7.5667231 12.8329818 -7.5667231 12.8329818 -4.4921875 13.609375 C-4.4921875 14.269375 -4.4921875 14.929375 -4.4921875 15.609375 C-3.8321875 15.609375 -3.1721875 15.609375 -2.4921875 15.609375 C-2.4921875 16.929375 -2.4921875 18.249375 -2.4921875 19.609375 C-1.8321875 19.609375 -1.1721875 19.609375 -0.4921875 19.609375 C0.1678125 20.599375 0.8278125 21.589375 1.5078125 22.609375 C2.8278125 22.279375 4.1478125 21.949375 5.5078125 21.609375 C5.5078125 23.919375 5.5078125 26.229375 5.5078125 28.609375 C4.1878125 28.609375 2.8678125 28.609375 1.5078125 28.609375 C-0.5 26.484375 -0.5 26.484375 -2.6171875 23.609375 C-12.55318161 10.94138906 -25.09252723 3.71273275 -40.4921875 -0.390625 C-29.55484302 -9.6453011 -11.5641655 -6.45273185 0 0 Z " fill="#B74D8D" transform="translate(205.4921875,42.390625)"/>
<path d="M0 0 C4.81170256 1.94515636 9.17216963 4.19182086 13.59375 6.9140625 C19.76972899 9.7012738 26.79734773 9.12464685 33.4375 9.0625 C34.35982422 9.05798828 35.28214844 9.05347656 36.23242188 9.04882812 C38.48835048 9.03713938 40.74413967 9.02075455 43 9 C43 8.34 43 7.68 43 7 C43.556875 7.28875 44.11375 7.5775 44.6875 7.875 C50.05965216 10.48847943 54.39381264 11.37111529 60.3125 11.625 C61.42334961 11.68300781 61.42334961 11.68300781 62.55664062 11.7421875 C64.37071309 11.83581705 66.18532116 11.91896851 68 12 C61.87711833 15.6363593 53.71821003 14.45258595 47 13 C47 12.34 47 11.68 47 11 C45.51306641 11.50660156 45.51306641 11.50660156 43.99609375 12.0234375 C39.91307549 13.19001415 36.29697346 12.99973216 32.0625 12.625 C31.37865234 12.56828125 30.69480469 12.5115625 29.99023438 12.453125 C28.32582954 12.31345466 26.66273114 12.15835535 25 12 C25 12.99 25 13.98 25 15 C23.68 15 22.36 15 21 15 C21 15.66 21 16.32 21 17 C21.680625 17.268125 22.36125 17.53625 23.0625 17.8125 C25.13962617 18.6521893 27.20104664 19.53123217 29.25 20.4375 C30.49729715 20.96477334 31.74744988 21.48532965 33 22 C33.63494385 22.26256592 34.2698877 22.52513184 34.92407227 22.7956543 C41.22778541 25.15538446 47.00058634 25.45300677 53.6875 25.375 C54.69361328 25.38660156 55.69972656 25.39820313 56.73632812 25.41015625 C62.29441104 25.38817306 66.15835306 25.01344105 71 22 C73.375 21.3125 73.375 21.3125 75 21 C75 21.66 75 22.32 75 23 C75.763125 22.67 76.52625 22.34 77.3125 22 C80 21 80 21 83 21 C83.33 20.34 83.66 19.68 84 19 C87.57077902 14.64811307 90.62984071 13.26231322 95.8515625 11.76171875 C98.71595493 10.74616143 100.67482101 8.91485329 103 7 C103.99 7.33 104.98 7.66 106 8 C91.1852375 22.40324132 73.63281123 29.401815 53.05078125 29.30249023 C36.96934825 28.89322081 22.41328789 23.00622405 10 13 C9.12988281 12.32195312 8.25976562 11.64390625 7.36328125 10.9453125 C4.39354773 8.50080458 2.29764662 6.08541117 0 3 C0 2.01 0 1.02 0 0 Z " fill="#E77096" transform="translate(121,179)"/>
<path d="M0 0 C4.80610083 2.39625179 9.34327419 5.18391334 13.84912109 8.09912109 C11.97412109 9.16162109 11.97412109 9.16162109 9.84912109 10.09912109 C9.18912109 9.76912109 8.52912109 9.43912109 7.84912109 9.09912109 C7.18912109 10.08912109 6.52912109 11.07912109 5.84912109 12.09912109 C5.18912109 10.44912109 4.52912109 8.79912109 3.84912109 7.09912109 C2.52912109 7.09912109 1.20912109 7.09912109 -0.15087891 7.09912109 C-0.48087891 6.10912109 -0.81087891 5.11912109 -1.15087891 4.09912109 C-1.93462891 4.14037109 -2.71837891 4.18162109 -3.52587891 4.22412109 C-6.15087891 4.09912109 -6.15087891 4.09912109 -8.15087891 2.09912109 C-11.12087891 3.08912109 -14.09087891 4.07912109 -17.15087891 5.09912109 C-17.48087891 7.07912109 -17.81087891 9.05912109 -18.15087891 11.09912109 C-20.64152779 11.78619665 -22.52974182 12.09912109 -25.15087891 12.09912109 C-25.79693831 21.97756006 -25.79693831 21.97756006 -22.83837891 30.97412109 C-21.00416155 32.19693266 -19.16210839 33.19753546 -17.15087891 34.09912109 C-17.15087891 34.75912109 -17.15087891 35.41912109 -17.15087891 36.09912109 C-16.49087891 36.42912109 -15.83087891 36.75912109 -15.15087891 37.09912109 C-18.15087891 38.09912109 -18.15087891 38.09912109 -19.86962891 37.34912109 C-20.75134766 36.73037109 -20.75134766 36.73037109 -21.65087891 36.09912109 C-22.23869141 35.70724609 -22.82650391 35.31537109 -23.43212891 34.91162109 C-25.15087891 33.09912109 -25.15087891 33.09912109 -28.15087891 26.09912109 C-28.48087891 79.22912109 -28.81087891 132.35912109 -29.15087891 187.09912109 C-29.48087891 187.09912109 -29.81087891 187.09912109 -30.15087891 187.09912109 C-30.22099305 164.94167886 -30.2738789 142.78425495 -30.30631542 120.62672424 C-30.32177728 110.33835133 -30.34285383 100.05004739 -30.37719727 89.76171875 C-30.40712042 80.79330015 -30.42645886 71.82493152 -30.43314439 62.85646439 C-30.4370517 58.10873479 -30.4462203 53.3611481 -30.46806908 48.61346436 C-30.48848026 44.14179963 -30.49470334 39.67033627 -30.49020195 35.19862938 C-30.49102508 33.56039523 -30.49696311 31.92215411 -30.50849533 30.28396034 C-30.57188803 20.81159079 -30.55953544 13.2121059 -25.15087891 5.09912109 C-24.49087891 5.09912109 -23.83087891 5.09912109 -23.15087891 5.09912109 C-23.15087891 4.43912109 -23.15087891 3.77912109 -23.15087891 3.09912109 C-15.98564176 -1.39671398 -8.14930823 -3.41327439 0 0 Z " fill="#86A3B8" transform="translate(52.15087890625,11.90087890625)"/>
<path d="M0 0 C5.55641131 1.9948587 9.47900908 5.29202762 14 9 C14.67417969 9.5259375 15.34835938 10.051875 16.04296875 10.59375 C34.26425388 25.43264089 43.15301931 48.54195058 47 71 C47.185625 71.96292969 47.37125 72.92585938 47.5625 73.91796875 C49.38820701 86.77942259 47.6778073 99.40792998 45 112 C44.67 112 44.34 112 44 112 C44.00523682 110.79875488 44.01047363 109.59750977 44.01586914 108.35986328 C44.03393653 103.91325624 44.0454384 99.46665247 44.05493164 95.02001953 C44.05996787 93.09358169 44.06679712 91.16714769 44.07543945 89.24072266 C44.08753608 86.47557632 44.09323533 83.71048042 44.09765625 80.9453125 C44.10281754 80.0806839 44.10797882 79.2160553 44.11329651 78.32522583 C44.24383889 74.02748998 44.24383889 74.02748998 43 70 C42.93003986 68.29297265 42.91559846 66.58331997 42.9375 64.875 C42.94652344 63.96492188 42.95554688 63.05484375 42.96484375 62.1171875 C42.97644531 61.41851562 42.98804688 60.71984375 43 60 C42.01 60 41.02 60 40 60 C39.91363281 59.41734375 39.82726562 58.8346875 39.73828125 58.234375 C38.3844867 50.33517012 36.32165668 40.43699335 30 35 C28.515 35.495 28.515 35.495 27 36 C27 33.03 27 30.06 27 27 C26.01 26.67 25.02 26.34 24 26 C23.67 26.33 23.34 26.66 23 27 C22.67 26.34 22.34 25.68 22 25 C21.34 25 20.68 25 20 25 C19.67 25.66 19.34 26.32 19 27 C18.375 25.1875 18.375 25.1875 18 23 C18.66 22.01 19.32 21.02 20 20 C19.34 19.34 18.68 18.68 18 18 C16.02 18.99 16.02 18.99 14 20 C14 17.69 14 15.38 14 13 C13.34 13 12.68 13 12 13 C12 13.66 12 14.32 12 15 C10.68 15 9.36 15 8 15 C8.2475 14.2575 8.495 13.515 8.75 12.75 C8.8325 11.8425 8.915 10.935 9 10 C7.12491838 7.7914234 7.12491838 7.7914234 5 6 C5 5.34 5 4.68 5 4 C4.360625 3.896875 3.72125 3.79375 3.0625 3.6875 C2.381875 3.460625 1.70125 3.23375 1 3 C0.67 2.01 0.34 1.02 0 0 Z " fill="#E8AA6A" transform="translate(209,28)"/>
<path d="M0 0 C0.495 1.98 0.495 1.98 1 4 C0.27683594 4.52787109 0.27683594 4.52787109 -0.4609375 5.06640625 C-5.13635755 8.72086723 -6.98432486 11.13165475 -8 17 C-8 17.66 -8 18.32 -8 19 C-7.34 19 -6.68 19 -6 19 C-6.33 20.32 -6.66 21.64 -7 23 C-5.68 23.33 -4.36 23.66 -3 24 C-8.13439674 29.13439674 -15.95086969 30.28037295 -22.9375 30.375 C-26.87720197 30.32712999 -29.60245457 30.04671412 -33 28 C-33 27.01 -33 26.02 -33 25 C-31.205625 24.319375 -31.205625 24.319375 -29.375 23.625 C-18.2664931 18.6761865 -6.7658839 10.14882586 0 0 Z " fill="#37AACE" transform="translate(205,159)"/>
<path d="M0 0 C2.75 0.0625 2.75 0.0625 6 1 C7.78665025 3.21522368 8.76509775 5.39298415 10 8 C10.495 8.99 10.495 8.99 11 10 C11.69504632 18.05986406 10.93983205 23.64706028 6.3828125 30.39453125 C3.33891185 33.72286196 0.03600271 35.6290059 -3.875 37.8125 C-5.39714935 38.67836092 -6.91928454 39.54424673 -8.44140625 40.41015625 C-9.58440186 41.05428467 -9.58440186 41.05428467 -10.75048828 41.71142578 C-12.88858182 42.93617699 -14.99182104 44.20417239 -17.08984375 45.49609375 C-17.71971191 45.87725342 -18.34958008 46.25841309 -18.99853516 46.65112305 C-20.71807229 47.69279689 -22.43149145 48.74455043 -24.14453125 49.796875 C-27 51 -27 51 -29.38671875 50.203125 C-29.91910156 49.80609375 -30.45148438 49.4090625 -31 49 C-29 47 -29 47 -25.4375 45.625 C-24.303125 45.08875 -23.16875 44.5525 -22 44 C-21.23707622 41.96139037 -21.23707622 41.96139037 -21 40 C-20.38511719 39.89042969 -19.77023438 39.78085938 -19.13671875 39.66796875 C-18.32847656 39.50941406 -17.52023438 39.35085937 -16.6875 39.1875 C-15.88699219 39.03667969 -15.08648437 38.88585937 -14.26171875 38.73046875 C-11.95067081 38.17370612 -11.95067081 38.17370612 -10.53125 36.53125 C-8.48673568 34.48673568 -6.58150208 34.06768239 -3.8125 33.3125 C-2.91144531 33.06113281 -2.01039063 32.80976563 -1.08203125 32.55078125 C-0.39496094 32.36902344 0.29210937 32.18726563 1 32 C1.185625 30.63875 1.185625 30.63875 1.375 29.25 C1.92109677 26.41029677 2.57263803 24.47409409 4 22 C4.66 22 5.32 22 6 22 C6.66 19.03 7.32 16.06 8 13 C7.34 13 6.68 13 6 13 C5.855625 12.195625 5.71125 11.39125 5.5625 10.5625 C5.25864751 8.07896294 5.25864751 8.07896294 4 7 C3.34 7.66 2.68 8.32 2 9 C0 3.375 0 3.375 0 0 Z M2 3 C3 5 3 5 3 5 Z " fill="#4F71D6" transform="translate(194,98)"/>
<path d="M0 0 C1.23363281 0.01353516 1.23363281 0.01353516 2.4921875 0.02734375 C4.49492083 0.05063135 6.49750154 0.08649041 8.5 0.125 C8.5 1.115 8.5 2.105 8.5 3.125 C6.52 4.115 6.52 4.115 4.5 5.125 C4.83 6.445 5.16 7.765 5.5 9.125 C6.49 9.125 7.48 9.125 8.5 9.125 C8.5 9.785 8.5 10.445 8.5 11.125 C9.82 11.125 11.14 11.125 12.5 11.125 C12.83 12.115 13.16 13.105 13.5 14.125 C15.4254644 16.3486068 15.4254644 16.3486068 18.5 17.125 C18.5 17.785 18.5 18.445 18.5 19.125 C19.16 19.125 19.82 19.125 20.5 19.125 C20.5 20.445 20.5 21.765 20.5 23.125 C21.16 23.125 21.82 23.125 22.5 23.125 C23.16 24.115 23.82 25.105 24.5 26.125 C25.82 25.795 27.14 25.465 28.5 25.125 C28.5 27.435 28.5 29.745 28.5 32.125 C27.18 32.125 25.86 32.125 24.5 32.125 C22.4921875 30 22.4921875 30 20.375 27.125 C10.43900589 14.45701406 -2.10033973 7.22835775 -17.5 3.125 C-17.5 2.795 -17.5 2.465 -17.5 2.125 C-11.50325593 0.37824198 -6.22635779 -0.13182842 0 0 Z " fill="#B552AB" transform="translate(182.5,38.875)"/>
<path d="M0 0 C0.66 1.32 1.32 2.64 2 4 C5.22574879 7.5804703 8.50148163 10.15524098 12.625 12.625 C13.172771 12.95491943 13.72054199 13.28483887 14.28491211 13.62475586 C21.72745193 18.08089626 29.25828144 22.39088514 36.77636719 26.71777344 C41.52924626 29.45845426 46.26401706 32.23025349 51 35 C49 36 47 37 45 38 C44.01 37.505 44.01 37.505 43 37 C42.505 37.99 42.505 37.99 42 39 C41.34 39 40.68 39 40 39 C39.9175 37.906875 39.835 36.81375 39.75 35.6875 C39.37989701 31.96556057 39.37989701 31.96556057 36.9375 30.1875 C36.298125 29.795625 35.65875 29.40375 35 29 C35 28.34 35 27.68 35 27 C32.69 26.67 30.38 26.34 28 26 C27.67 25.01 27.34 24.02 27 23 C25.68 23 24.36 23 23 23 C23.33 23.66 23.66 24.32 24 25 C22.68 25 21.36 25 20 25 C19 22 19 22 19 18 C16.36 17.67 13.72 17.34 11 17 C11 16.01 11 15.02 11 14 C10.34 14 9.68 14 9 14 C8.34 14.66 7.68 15.32 7 16 C5.35 16.66 3.7 17.32 2 18 C1.67 25.26 1.34 32.52 1 40 C0.67 40 0.34 40 0 40 C0 26.8 0 13.6 0 0 Z " fill="#304AA6" transform="translate(24,38)"/>
<path d="M0 0 C0.66 0 1.32 0 2 0 C3.12109375 1.43359375 3.12109375 1.43359375 4.4375 3.4375 C9.35378278 10.25960105 16.31313775 15.02409546 23 20 C22.34 20 21.68 20 21 20 C21 20.66 21 21.32 21 22 C17.22177072 23.25940976 13.68393314 23.14517402 9.75 23.125 C8.64205078 23.13080078 8.64205078 23.13080078 7.51171875 23.13671875 C0.50457623 23.12436047 -5.43391462 22.71119067 -11.625 19.125 C-12.52476562 18.61195313 -13.42453125 18.09890625 -14.3515625 17.5703125 C-15.66253906 16.79300781 -15.66253906 16.79300781 -17 16 C-17.93585938 15.48179687 -18.87171875 14.96359375 -19.8359375 14.4296875 C-20.55007812 13.95789063 -21.26421875 13.48609375 -22 13 C-22 12.34 -22 11.68 -22 11 C-22.66 11 -23.32 11 -24 11 C-24 9.35 -24 7.7 -24 6 C-23.01 6 -22.02 6 -21 6 C-20.608125 6.969375 -20.21625 7.93875 -19.8125 8.9375 C-18.32405113 12.22176391 -18.32405113 12.22176391 -15.3125 12.875 C-14.1678125 12.936875 -14.1678125 12.936875 -13 13 C-12.67 14.32 -12.34 15.64 -12 17 C-11.319375 16.95875 -10.63875 16.9175 -9.9375 16.875 C-6.40178978 17.02545575 -3.37792668 17.98024855 0 19 C0.66 19 1.32 19 2 19 C2 19.66 2 20.32 2 21 C5.63 20.67 9.26 20.34 13 20 C13.495 18.515 13.495 18.515 14 17 C13.34 16.67 12.68 16.34 12 16 C12 15.34 12 14.68 12 14 C9.69 13.67 7.38 13.34 5 13 C4.7525 12.21625 4.505 11.4325 4.25 10.625 C2.81895569 7.61980696 2.05254489 7.11001632 -1 6 C-1.99 5.67 -2.98 5.34 -4 5 C-3.67 4.34 -3.34 3.68 -3 3 C-2.34 3 -1.68 3 -1 3 C-0.67 2.01 -0.34 1.02 0 0 Z " fill="#FD9961" transform="translate(143,166)"/>
<path d="M0 0 C0.99 0.33 1.98 0.66 3 1 C-11.8368726 15.42473725 -29.33713199 22.34334137 -49.92944336 22.30908203 C-57.86233877 22.12554217 -65.97503012 20.84700731 -73 17 C-71.56260487 16.97287934 -70.12506137 16.95354933 -68.6875 16.9375 C-67.48673828 16.92009766 -67.48673828 16.92009766 -66.26171875 16.90234375 C-64 17 -64 17 -61 18 C-57.23357862 18.25751975 -53.46179376 18.23137301 -49.6875 18.25 C-48.65431641 18.270625 -47.62113281 18.29125 -46.55664062 18.3125 C-40.88780694 18.34158959 -36.93033654 18.11431597 -32 15 C-29.625 14.3125 -29.625 14.3125 -28 14 C-28 14.66 -28 15.32 -28 16 C-27.236875 15.67 -26.47375 15.34 -25.6875 15 C-23 14 -23 14 -20 14 C-19.67 13.34 -19.34 12.68 -19 12 C-15.42922098 7.64811307 -12.37015929 6.26231322 -7.1484375 4.76171875 C-4.28404507 3.74616143 -2.32517899 1.91485329 0 0 Z " fill="#EA7A87" transform="translate(224,186)"/>
<path d="M0 0 C3 2 3 2 3.6875 3.6875 C4.74468085 11.5106383 4.74468085 11.5106383 3 15 C3.66 15 4.32 15 5 15 C5.33 17.64 5.66 20.28 6 23 C5.071875 23.2475 5.071875 23.2475 4.125 23.5 C0.72243051 25.90181375 0.77387974 29.00162134 0 33 C3.34430737 32.27633685 5.34262343 31.18284504 8 29 C8.99 29.66 9.98 30.32 11 31 C11.33 30.34 11.66 29.68 12 29 C13.65 29.33 15.3 29.66 17 30 C14.24557901 33.23036874 10.6605933 35.04092235 7 37.0625 C3.60265263 38.95958434 0.24072455 40.83951696 -3 43 C-5.6875 43.125 -5.6875 43.125 -8 43 C-8 39.66109482 -7.48512569 38.92084559 -5.75 36.1875 C0.63340633 25.00289917 2.71949216 12.57765125 0 0 Z " fill="#4F76EA" transform="translate(148,119)"/>
<path d="M0 0 C7.41887529 3.04182729 7.41887529 3.04182729 10.5625 5.5 C13.54894161 7.73645288 16.60603004 9.42718465 20 11 C20 11.66 20 12.32 20 13 C18.576875 12.9690625 18.576875 12.9690625 17.125 12.9375 C14.09333717 12.77448174 14.09333717 12.77448174 12 14 C12.33 12.68 12.66 11.36 13 10 C9.6659053 7.80902348 6.95820859 6.56545837 3 6 C2.67 7.65 2.34 9.3 2 11 C2.66 11 3.32 11 4 11 C3.42655063 13.86724686 3.1385485 14.8614515 1 17 C-0.5118351 22.14023935 -0.69160111 27.92519668 1 33 C1 34.95315278 0.99768242 36.90643652 0.96875 38.859375 C1.01418927 41.97196519 1.4886529 44.93191742 2 48 C2.99 48.33 3.98 48.66 5 49 C4.67 52.3 4.34 55.6 4 59 C1.6120592 56.6120592 1.64618276 55.23091381 1 52 C0.34 51.34 -0.32 50.68 -1 50 C-1.48167997 47.39536014 -1.84725635 44.87755221 -2.125 42.25 C-2.24911255 41.09927002 -2.24911255 41.09927002 -2.37573242 39.92529297 C-3.76339169 26.16849821 -2.42431481 13.5357577 0 0 Z " fill="#DC859A" transform="translate(101,89)"/>
<path d="M0 0 C5.55641131 1.9948587 9.47900908 5.29202762 14 9 C14.67417969 9.5259375 15.34835938 10.051875 16.04296875 10.59375 C23.68420171 16.81655049 31.14650151 25.42039792 34 35 C33.67 35.99 33.34 36.98 33 38 C31.515 36.515 31.515 36.515 30 35 C28.515 35.495 28.515 35.495 27 36 C27 33.03 27 30.06 27 27 C26.01 26.67 25.02 26.34 24 26 C23.67 26.33 23.34 26.66 23 27 C22.67 26.34 22.34 25.68 22 25 C21.34 25 20.68 25 20 25 C19.67 25.66 19.34 26.32 19 27 C18.375 25.1875 18.375 25.1875 18 23 C18.66 22.01 19.32 21.02 20 20 C19.34 19.34 18.68 18.68 18 18 C16.02 18.99 16.02 18.99 14 20 C14 17.69 14 15.38 14 13 C13.34 13 12.68 13 12 13 C12 13.66 12 14.32 12 15 C10.68 15 9.36 15 8 15 C8.2475 14.2575 8.495 13.515 8.75 12.75 C8.8325 11.8425 8.915 10.935 9 10 C7.12491838 7.7914234 7.12491838 7.7914234 5 6 C5 5.34 5 4.68 5 4 C4.360625 3.896875 3.72125 3.79375 3.0625 3.6875 C2.381875 3.460625 1.70125 3.23375 1 3 C0.67 2.01 0.34 1.02 0 0 Z " fill="#F2A85B" transform="translate(209,28)"/>
<path d="M0 0 C0.495 0.99 0.495 0.99 1 2 C2.98 2 4.96 2 7 2 C4.9613522 4.17052588 2.97346187 5.7605878 0.41015625 7.26953125 C-0.2864209 7.68098389 -0.98299805 8.09243652 -1.70068359 8.51635742 C-2.43883301 8.94408447 -3.17698242 9.37181152 -3.9375 9.8125 C-4.69369629 10.25247314 -5.44989258 10.69244629 -6.22900391 11.14575195 C-20.23000504 19.22530491 -20.23000504 19.22530491 -25 21 C-28 20 -31 19 -34 18 C-33.34 17.67 -32.68 17.34 -32 17 C-32 16.34 -32 15.68 -32 15 C-31.34 15 -30.68 15 -30 15 C-30 15.66 -30 16.32 -30 17 C-27.08347826 17.16681109 -27.08347826 17.16681109 -24 17 C-21.94729537 15.15811388 -21.94729537 15.15811388 -21 13 C-19.02 13 -17.04 13 -15 13 C-14.67 10.69 -14.34 8.38 -14 6 C-12.68 5.67 -11.36 5.34 -10 5 C-9.67 5.66 -9.34 6.32 -9 7 C-5.18315774 5.44499019 -2.80804268 2.96404505 0 0 Z " fill="#AA53A8" transform="translate(74,196)"/>
<path d="M0 0 C1.485 0.99 1.485 0.99 3 2 C3 2.66 3 3.32 3 4 C3.99 4 4.98 4 6 4 C6.33773437 4.88042969 6.67546875 5.76085937 7.0234375 6.66796875 C7.46945313 7.82941406 7.91546875 8.99085937 8.375 10.1875 C8.81585938 11.33605469 9.25671875 12.48460938 9.7109375 13.66796875 C10.47386412 15.64001847 11.25937611 17.60397579 12.09375 19.546875 C17.39081605 33.88548481 16.33342806 53.35672674 13 68 C12.67 68 12.34 68 12 68 C12 54.8 12 41.6 12 28 C11.34 28 10.68 28 10 28 C9.34 23.71 8.68 19.42 8 15 C7.34 15 6.68 15 6 15 C5.34 13.68 4.68 12.36 4 11 C3.01 11 2.02 11 1 11 C1.20625 10.29875 1.4125 9.5975 1.625 8.875 C2.07850357 5.39813928 1.27540277 3.22601877 0 0 Z " fill="#86689E" transform="translate(227,68)"/>
<path d="M0 0 C0.66 0.33 1.32 0.66 2 1 C0.46620188 2.44589269 -1.07743855 3.88134804 -2.625 5.3125 C-3.48351562 6.11300781 -4.34203125 6.91351563 -5.2265625 7.73828125 C-8.388069 10.31646753 -11.77329146 13 -16 13 C-16 13.66 -16 14.32 -16 15 C-22.246209 17.73905685 -27.33800957 18.46657858 -34.125 18.375 C-34.99253906 18.38660156 -35.86007813 18.39820313 -36.75390625 18.41015625 C-41.89732056 18.38667034 -45.57048886 17.90111752 -50 15 C-50.33 14.34 -50.66 13.68 -51 13 C-48.36 12.67 -45.72 12.34 -43 12 C-43.33 12.66 -43.66 13.32 -44 14 C-33.86488871 17.37837043 -23.32072172 14.47206345 -14 10 C-12.3073487 8.69981266 -10.63524985 7.37168272 -9 6 C-8.154375 5.67 -7.30875 5.34 -6.4375 5 C-3.58525691 3.82984899 -2.04511418 2.27234909 0 0 Z " fill="#8A91A8" transform="translate(217,173)"/>
<path d="M0 0 C0.99 0.33 1.98 0.66 3 1 C4.32 1 5.64 1 7 1 C6.01 2.485 6.01 2.485 5 4 C4.34 4 3.68 4 3 4 C3 26.11 3 48.22 3 71 C2.67 71 2.34 71 2 71 C1.98969254 70.43862335 1.97938507 69.8772467 1.96876526 69.29885864 C1.85905141 63.35947778 1.74462716 57.42019988 1.62768555 51.48095703 C1.58485491 49.27590121 1.54315368 47.0708231 1.50268555 44.86572266 C1.30498821 34.13148952 1.09597701 23.40175359 0.52734375 12.6796875 C0.49024796 11.95145782 0.45315216 11.22322815 0.41493225 10.47293091 C0.22347176 7.19061705 -0.18755225 4.17820536 -1 1 C-0.67 0.67 -0.34 0.34 0 0 Z " fill="#573998" transform="translate(63,75)"/>
<path d="M0 0 C0.99 0 1.98 0 3 0 C3 0.66 3 1.32 3 2 C4.32 2 5.64 2 7 2 C7.33 2.99 7.66 3.98 8 5 C9.9254644 7.2236068 9.9254644 7.2236068 13 8 C13 8.66 13 9.32 13 10 C13.66 10 14.32 10 15 10 C15 11.32 15 12.64 15 14 C15.66 14 16.32 14 17 14 C17.99 15.485 17.99 15.485 19 17 C20.32 16.67 21.64 16.34 23 16 C23 18.31 23 20.62 23 23 C21.68 23 20.36 23 19 23 C16.9921875 20.875 16.9921875 20.875 14.875 18 C11.02850926 13.04173286 7.02835455 9.34164097 1.96875 5.65625 C0 4 0 4 -1 1 C-0.67 0.67 -0.34 0.34 0 0 Z " fill="#A45BA9" transform="translate(188,48)"/>
<path d="M0 0 C0 1.32 0 2.64 0 4 C-0.680625 4.103125 -1.36125 4.20625 -2.0625 4.3125 C-8.56059349 5.83333039 -15.55185654 8.70442226 -19.625 14.1875 C-21 16 -21 16 -23 16.875 C-25 17 -25 17 -28 15 C-7.91876209 -3.95938104 -7.91876209 -3.95938104 0 0 Z " fill="#F08986" transform="translate(155,24)"/>
<path d="M0 0 C4.875 0.875 4.875 0.875 6 2 C11.82152241 3.11741974 17.52529314 3.11783383 23.4375 3.0625 C24.82098633 3.05573242 24.82098633 3.05573242 26.23242188 3.04882812 C28.48835048 3.03713938 30.74413967 3.02075455 33 3 C33 2.34 33 1.68 33 1 C33.556875 1.28875 34.11375 1.5775 34.6875 1.875 C40.05965216 4.48847943 44.39381264 5.37111529 50.3125 5.625 C51.05306641 5.66367188 51.79363281 5.70234375 52.55664062 5.7421875 C54.37071309 5.83581705 56.18532116 5.91896851 58 6 C51.87711833 9.6363593 43.71821003 8.45258595 37 7 C37 6.34 37 5.68 37 5 C36.01 5.350625 35.02 5.70125 34 6.0625 C30.61636739 7.26086988 27.69466213 6.81182018 24.18505859 6.30493164 C22.01659552 6.00231596 19.85704319 5.79203375 17.67578125 5.60546875 C16.95712891 5.53650391 16.23847656 5.46753906 15.49804688 5.39648438 C14.03045831 5.25615196 12.56158361 5.12872114 11.09179688 5.01367188 C6.26129312 4.52147447 3.60268495 3.50320253 0 0 Z " fill="#F16A80" transform="translate(131,185)"/>
<path d="M0 0 C1.4835001 0.42257276 2.96176424 0.86356322 4.4375 1.3125 C5.67306641 1.67794922 5.67306641 1.67794922 6.93359375 2.05078125 C7.61550781 2.36402344 8.29742187 2.67726563 9 3 C9.33 3.99 9.66 4.98 10 6 C11.98 6 13.96 6 16 6 C16.33 6.66 16.66 7.32 17 8 C18.74311442 8.90881053 18.74311442 8.90881053 20.8125 9.625 C21.49957031 9.88539062 22.18664062 10.14578125 22.89453125 10.4140625 C25.27801323 11.17873651 25.27801323 11.17873651 29 11 C29 11.66 29 12.32 29 13 C29.66 13.33 30.32 13.66 31 14 C31.72159424 15.64363134 32.39351421 17.31050386 33 19 C27.76727367 17.36041242 22.84803364 15.61047965 18 13 C18 12.34 18 11.68 18 11 C17.278125 10.71125 16.55625 10.4225 15.8125 10.125 C13.20833333 9.08333333 10.60416667 8.04166667 8 7 C8 6.34 8 5.68 8 5 C7.05125 4.731875 6.1025 4.46375 5.125 4.1875 C2 3 2 3 0 0 Z " fill="#3E7EE2" transform="translate(113,95)"/>
<path d="M0 0 C3 2 3 2 3.6875 3.6875 C4.74468085 11.5106383 4.74468085 11.5106383 3 15 C3.66 15 4.32 15 5 15 C5.33 17.64 5.66 20.28 6 23 C5.38253906 23.24234375 4.76507813 23.4846875 4.12890625 23.734375 C1.509241 25.29175397 1.03909589 26.44593775 -0.0625 29.25 C-0.38863281 30.04792969 -0.71476563 30.84585938 -1.05078125 31.66796875 C-1.36402344 32.43753906 -1.67726562 33.20710938 -2 34 C-2.98589105 36.00699249 -3.97964496 38.01030767 -5 40 C-4.34 40.33 -3.68 40.66 -3 41 C-3.66 41.66 -4.32 42.32 -5 43 C-7.125 42.625 -7.125 42.625 -9 42 C-8.61328125 41.36835938 -8.2265625 40.73671875 -7.828125 40.0859375 C-0.50303639 27.50274073 3.12248505 14.44149334 0 0 Z " fill="#4A6DCC" transform="translate(148,119)"/>
<path d="M0 0 C1.01191406 -0.01611328 2.02382812 -0.03222656 3.06640625 -0.04882812 C13.6450248 -0.05560061 22.66955223 2.71318343 32.125 7.3125 C28.83523192 8.40908936 27.41196233 8.11203138 24.125 7.3125 C24.125 6.6525 24.125 5.9925 24.125 5.3125 C17.47510635 3.9019165 11.02080993 3.16367426 4.22265625 3.21484375 C3.13880898 3.21696617 3.13880898 3.21696617 2.0330658 3.21913147 C-0.24883365 3.22467775 -2.53063079 3.2372198 -4.8125 3.25 C-6.37044128 3.25502196 -7.92838412 3.25958364 -9.48632812 3.26367188 C-13.28259081 3.2746295 -17.07877813 3.29185628 -20.875 3.3125 C-20.875 2.9825 -20.875 2.6525 -20.875 2.3125 C-13.81207994 0.4696799 -7.28507846 -0.0230249 0 0 Z " fill="#E8A68D" transform="translate(175.875,19.6875)"/>
<path d="M0 0 C0.66 0 1.32 0 2 0 C3.12109375 1.43359375 3.12109375 1.43359375 4.4375 3.4375 C9.35378278 10.25960105 16.31313775 15.02409546 23 20 C22.01 20.33 21.02 20.66 20 21 C20 20.34 20 19.68 20 19 C19.236875 18.87625 18.47375 18.7525 17.6875 18.625 C15 18 15 18 12 16 C12 15.34 12 14.68 12 14 C9.69 13.67 7.38 13.34 5 13 C4.7525 12.21625 4.505 11.4325 4.25 10.625 C2.81895569 7.61980696 2.05254489 7.11001632 -1 6 C-1.99 5.67 -2.98 5.34 -4 5 C-3.67 4.34 -3.34 3.68 -3 3 C-2.34 3 -1.68 3 -1 3 C-0.67 2.01 -0.34 1.02 0 0 Z " fill="#F6A254" transform="translate(143,166)"/>
<path d="M0 0 C5.68333946 2.33336206 10.85675079 5.67240359 16 9 C14.125 10.0625 14.125 10.0625 12 11 C11.34 10.67 10.68 10.34 10 10 C9.01 11.485 9.01 11.485 8 13 C7.34 11.35 6.68 9.7 6 8 C4.68 8 3.36 8 2 8 C1.67 7.01 1.34 6.02 1 5 C-0.65 5 -2.3 5 -4 5 C-4.33 4.01 -4.66 3.02 -5 2 C-8.63 2 -12.26 2 -16 2 C-10.95059108 -1.36627261 -5.86664567 -1.01744058 0 0 Z " fill="#56B6C1" transform="translate(50,11)"/>
<path d="M0 0 C1.32 0 2.64 0 4 0 C4.33 0.66 4.66 1.32 5 2 C6.63198927 2.70670016 8.26679827 3.40753704 9.91455078 4.07666016 C13.76940193 5.78340882 17.32837866 8.01955308 20.9375 10.1875 C21.71673828 10.65091797 22.49597656 11.11433594 23.29882812 11.59179688 C25.2015239 12.72407596 27.10180929 13.86019035 29 15 C28.67 15.66 28.34 16.32 28 17 C26.9790625 16.566875 26.9790625 16.566875 25.9375 16.125 C22.67188211 14.87433783 19.36326877 13.95186852 16 13 C15.34 12.67 14.68 12.34 14 12 C14 11.34 14 10.68 14 10 C11.03 9.505 11.03 9.505 8 9 C7.979375 8.4225 7.95875 7.845 7.9375 7.25 C6.4233745 3.61609879 3.44043825 2.75149584 0 1 C0 0.67 0 0.34 0 0 Z " fill="#4785D7" transform="translate(133,61)"/>
<path d="M0 0 C2 1 2 1 3.4375 4.4375 C4.70190988 8.19068113 4.70190988 8.19068113 8 10 C7.67 11.65 7.34 13.3 7 15 C7.66 15 8.32 15 9 15 C9.103125 15.598125 9.20625 16.19625 9.3125 16.8125 C9.81199129 19.0652515 9.81199129 19.0652515 11.5 20.3125 C13.79784024 22.89757027 13.6837707 25.64796938 14 29 C14.66 29 15.32 29 16 29 C15.67 30.32 15.34 31.64 15 33 C13.31683774 30.93430086 12.05618532 29.1430821 11.078125 26.65234375 C9.98638142 23.96649631 8.66983596 21.6993254 7.125 19.25 C-0.8017545 6.21359738 -0.8017545 6.21359738 0 0 Z " fill="#EB936C" transform="translate(105,148)"/>
<path d="M0 0 C0.33 0 0.66 0 1 0 C1.33 23.76 1.66 47.52 2 72 C2.66 72 3.32 72 4 72 C3.505 72.99 3.505 72.99 3 74 C1.0625 73.25 1.0625 73.25 -1 72 C-1.8125 69.9375 -1.8125 69.9375 -2 68 C-1.505 67.505 -1.505 67.505 -1 67 C-0.8761366 64.9145818 -0.82200933 62.82499859 -0.79467773 60.73608398 C-0.78477814 60.08244873 -0.77487854 59.42881348 -0.76467896 58.75537109 C-0.73298366 56.58564936 -0.70827508 54.4159057 -0.68359375 52.24609375 C-0.66303113 50.74536048 -0.64203485 49.2446331 -0.62062073 47.74391174 C-0.56532845 43.78688307 -0.51595089 39.82980151 -0.46777344 35.87268066 C-0.4176105 31.8375984 -0.36189732 27.80259328 -0.30664062 23.76757812 C-0.1989716 15.84511723 -0.09754621 7.92259196 0 0 Z " fill="#8269AD" transform="translate(66,79)"/>
<path d="M0 0 C2.03446037 1.67385496 2.91948725 2.5571799 3.3984375 5.19140625 C3.39070312 5.97386719 3.38296875 6.75632813 3.375 7.5625 C3.38273438 8.34753906 3.39046875 9.13257813 3.3984375 9.94140625 C3.26695312 10.62074219 3.13546875 11.30007812 3 12 C2.01 12.66 1.02 13.32 0 14 C-0.33 13.67 -0.66 13.34 -1 13 C-1.33 13.66 -1.66 14.32 -2 15 C-2.66 15 -3.32 15 -4 15 C-4 15.99 -4 16.98 -4 18 C-5.65 18 -7.3 18 -9 18 C-8.43410156 16.95199219 -7.86820313 15.90398437 -7.28515625 14.82421875 C-6.54414712 13.44537898 -5.8032685 12.06646906 -5.0625 10.6875 C-4.50272461 9.65206055 -4.50272461 9.65206055 -3.93164062 8.59570312 C-3.57392578 7.92861328 -3.21621094 7.26152344 -2.84765625 6.57421875 C-2.51773682 5.96151123 -2.18781738 5.34880371 -1.84790039 4.7175293 C-0.8676439 2.83026062 -0.8676439 2.83026062 0 0 Z " fill="#5E85CB" transform="translate(215,141)"/>
<path d="M0 0 C0.66 0 1.32 0 2 0 C6 4.35294118 6 4.35294118 6 8 C6.99 8.33 7.98 8.66 9 9 C9.73046875 10.84765625 9.73046875 10.84765625 10.1875 13.0625 C10.34605469 13.79597656 10.50460938 14.52945313 10.66796875 15.28515625 C10.77753906 15.85105469 10.88710937 16.41695312 11 17 C11.66 17 12.32 17 13 17 C13 18.32 13 19.64 13 21 C13.66 21 14.32 21 15 21 C15.33 24.96 15.66 28.92 16 33 C13.38618744 30.38618744 12.84864452 27.94362694 11.6875 24.4375 C8.67256418 15.6607616 4.52270405 8.41620258 -1 1 C-0.67 0.67 -0.34 0.34 0 0 Z " fill="#F19D67" transform="translate(224,57)"/>
<path d="M0 0 C4.65142646 6.97713968 4.33757728 14.89502385 4.3125 23 C4.32861328 24.0415625 4.34472656 25.083125 4.36132812 26.15625 C4.36532921 32.49396189 3.63196803 37.22217044 1 43 C0.67 43 0.34 43 0 43 C0.0721875 42.43796875 0.144375 41.8759375 0.21875 41.296875 C1.72408699 27.6652123 1.55003867 13.61819691 0 0 Z " fill="#E79675" transform="translate(240,92)"/>
<path d="M0 0 C4.17927446 -0.17784147 6.09659267 0.20740243 9.29296875 3.01171875 C21 15.81689698 21 15.81689698 21 21 C20.34 21 19.68 21 19 21 C17.67896914 19.27906524 16.5652041 17.46701945 15.4140625 15.62890625 C13.70854198 13.66425968 12.52978658 13.38215925 10 13 C10.1546875 11.88625 10.1546875 11.88625 10.3125 10.75 C10.2646337 7.78460048 10.2646337 7.78460048 7.6875 5.6875 C5.10545093 3.73411593 5.10545093 3.73411593 2 4 C1.34 3.67 0.68 3.34 0 3 C0 2.01 0 1.02 0 0 Z " fill="#A95295" transform="translate(211,51)"/>
<path d="M0 0 C3.24745514 4.13312472 5 6.63932628 5 12 C5.78375 11.95875 6.5675 11.9175 7.375 11.875 C10 12 10 12 12 14 C12 14.99 12 15.98 12 17 C12.99 17.33 13.98 17.66 15 18 C15.66 18.66 16.32 19.32 17 20 C10.14578137 18.99202667 5.51475333 16.23595894 1.1953125 10.91015625 C-0.62096594 8.00767208 -0.9337775 5.37734775 -1 2 C-0.67 1.34 -0.34 0.68 0 0 Z " fill="#B053A1" transform="translate(24,197)"/>
<path d="M0 0 C2.91517292 1.07401108 4.77810176 1.77810176 7 4 C6.9375 6 6.9375 6 6 8 C4.35 8.66 2.7 9.32 1 10 C0.67 17.26 0.34 24.52 0 32 C-0.33 32 -0.66 32 -1 32 C-1.02465504 27.60343827 -1.04283842 23.2069128 -1.05493164 18.81030273 C-1.05997121 17.31355082 -1.06680287 15.81680384 -1.07543945 14.32006836 C-1.08752159 12.17300193 -1.09323191 10.02600038 -1.09765625 7.87890625 C-1.10289307 6.5854126 -1.10812988 5.29191895 -1.11352539 3.95922852 C-1 1 -1 1 0 0 Z " fill="#423FA7" transform="translate(25,46)"/>
<path d="M0 0 C0.33 0.66 0.66 1.32 1 2 C2.98 2 4.96 2 7 2 C4.53815995 4.75098234 1.84266858 6.4023551 -1.375 8.1875 C-2.31085938 8.71730469 -3.24671875 9.24710938 -4.2109375 9.79296875 C-7.0814008 11.03522808 -8.91415239 11.25247844 -12 11 C-12.33 10.01 -12.66 9.02 -13 8 C-13.33 7.34 -13.66 6.68 -14 6 C-12.68 5.67 -11.36 5.34 -10 5 C-9.67 5.66 -9.34 6.32 -9 7 C-5.18315774 5.44499019 -2.80804268 2.96404505 0 0 Z " fill="#994C9C" transform="translate(74,196)"/>
<path d="M0 0 C0.66 0.33 1.32 0.66 2 1 C1.67 1.66 1.34 2.32 1 3 C1.66 3.33 2.32 3.66 3 4 C1.68 4.33 0.36 4.66 -1 5 C-1.39581255 10.80525068 -0.19008221 15.73247787 1.34375 21.328125 C2 24 2 24 2 27 C2.66 27 3.32 27 4 27 C4.53190541 28.43344 5.05015258 29.87195367 5.5625 31.3125 C5.99755859 32.51326172 5.99755859 32.51326172 6.44140625 33.73828125 C7 36 7 36 6 39 C0.80844189 28.38283814 -5.54287469 15.15013815 -4 3 C-2 1.1640625 -2 1.1640625 0 0 Z " fill="#3D2733" transform="translate(133,121)"/>
<path d="M0 0 C0.33 0 0.66 0 1 0 C1.85632924 6.52951047 2.1361785 12.98500834 2.1875 19.5625 C2.20039063 20.35309814 2.21328125 21.14369629 2.2265625 21.95825195 C2.2358101 27.54091256 1.42005499 32.60540017 0 38 C-0.33 38 -0.66 38 -1 38 C-1.02468084 32.90967159 -1.04285082 27.81937785 -1.05493164 22.72900391 C-1.05996682 20.99657586 -1.06679532 19.26415208 -1.07543945 17.53173828 C-1.08754065 15.04458567 -1.09323638 12.55748913 -1.09765625 10.0703125 C-1.10281754 9.29317902 -1.10797882 8.51604553 -1.11329651 7.71536255 C-1.11387171 2.22774341 -1.11387171 2.22774341 0 0 Z " fill="#695FB2" transform="translate(221,94)"/>
<path d="M0 0 C6.62594481 1.6564862 12.16578779 4.54709889 18 8 C18 8.66 18 9.32 18 10 C16.576875 9.9690625 16.576875 9.9690625 15.125 9.9375 C12.09333717 9.77448174 12.09333717 9.77448174 10 11 C10.33 9.68 10.66 8.36 11 7 C7.6659053 4.80902348 4.95820859 3.56545837 1 3 C0.67 4.65 0.34 6.3 0 8 C0.66 8 1.32 8 2 8 C1.6875 9.875 1.6875 9.875 1 12 C0.01 12.66 -0.98 13.32 -2 14 C-1.34 9.38 -0.68 4.76 0 0 Z " fill="#E36D95" transform="translate(103,92)"/>
<path d="M0 0 C5.94087429 -0.19478276 11.18590953 0.32468191 17.00390625 1.48828125 C22.29695054 2.39230837 27.64486907 2.67647858 33 3 C33 3.66 33 4.32 33 5 C21.73071821 5.39059128 10.19602347 5.58353666 0 0 Z " fill="#E28EA5" transform="translate(151,203)"/>
<path d="M0 0 C2.62113708 0 4.50935112 0.31292445 7 1 C5.125 7.75 5.125 7.75 4 10 C3.34 10 2.68 10 2 10 C1.87625 10.804375 1.7525 11.60875 1.625 12.4375 C1.41875 13.283125 1.2125 14.12875 1 15 C0.01 15.495 0.01 15.495 -1 16 C-1.09688221 10.55306686 -1.12862175 5.36095333 0 0 Z " fill="#6575D4" transform="translate(219,126)"/>
<path d="M0 0 C0.33 1.32 0.66 2.64 1 4 C0.27683594 4.56267578 0.27683594 4.56267578 -0.4609375 5.13671875 C-4.23873781 8.19750798 -6.43070792 10.29212376 -8 15 C-11 17 -11 17 -13.5 17.4375 C-16.27701087 18.06232745 -17.21812199 18.84298978 -19 21 C-19.66 20.34 -20.32 19.68 -21 19 C-20.29875 18.5153125 -19.5975 18.030625 -18.875 17.53125 C-11.73920083 12.48965276 -4.8930158 7.33952371 0 0 Z " fill="#59A3C8" transform="translate(205,159)"/>
<path d="M0 0 C0.99 0.33 1.98 0.66 3 1 C3 2.65 3 4.3 3 6 C2.01 6.33 1.02 6.66 0 7 C-0.69658363 8.65438613 -1.36096883 10.32254318 -2 12 C-4.06619192 14.6296988 -5.72085432 15.43463006 -9 16 C-9.33 15.34 -9.66 14.68 -10 14 C-9.01 14 -8.02 14 -7 14 C-6.82984375 13.40832031 -6.6596875 12.81664062 -6.484375 12.20703125 C-4.99889662 7.36342355 -3.53140647 3.77495174 0 0 Z " fill="#4C83D1" transform="translate(225,158)"/>
<path d="M0 0 C4.43039439 0.50633079 6.95056598 1.71915867 10 5 C10.50212714 7.92724607 10.20034259 10.68705787 9.875 13.625 C9.813125 14.40101562 9.75125 15.17703125 9.6875 15.9765625 C9.19921875 21.6015625 9.19921875 21.6015625 8 24 C7.34 23.67 6.68 23.34 6 23 C6.02320312 21.86820313 6.04640625 20.73640625 6.0703125 19.5703125 C6.08906901 18.08854825 6.10726934 16.60677688 6.125 15.125 C6.14175781 14.37863281 6.15851563 13.63226563 6.17578125 12.86328125 C6.1933959 10.90805539 6.10320189 8.95257979 6 7 C5.34 6.34 4.68 5.68 4 5 C2.65705519 3.34106818 1.32255312 1.67523395 0 0 Z " fill="#DD7E92" transform="translate(121,102)"/>
<path d="M0 0 C0.66 0 1.32 0 2 0 C0.51697865 4.75439197 -3.43825381 6.41924097 -7.5 8.75 C-8.18964844 9.16121094 -8.87929687 9.57242188 -9.58984375 9.99609375 C-14.70945806 13 -14.70945806 13 -17 13 C-16.37109375 10.13671875 -16.37109375 10.13671875 -15 7 C-12.28515625 5.64453125 -12.28515625 5.64453125 -9.0625 4.8125 C-5.08152193 3.75316319 -2.75736356 3.06853938 0 0 Z " fill="#5E7BD2" transform="translate(198,127)"/>
<path d="M0 0 C3.69876091 1.37287342 6.9514476 3.06355453 10.3125 5.125 C11.19550781 5.66382813 12.07851562 6.20265625 12.98828125 6.7578125 C13.65214844 7.16773438 14.31601563 7.57765625 15 8 C12.02838815 8.99053728 10.08528008 9 7 9 C5.65667272 9.29044914 4.31774196 9.60955794 3 10 C2.67 9.01 2.34 8.02 2 7 C2.33 6.34 2.66 5.68 3 5 C2.34 4.67 1.68 4.34 1 4 C0.375 1.9375 0.375 1.9375 0 0 Z " fill="#49ADC8" transform="translate(66,21)"/>
<path d="M0 0 C2.58347442 2.58347442 2.2965769 4.59387115 2.6640625 8.09765625 C2.88170162 10.11188036 2.88170162 10.11188036 4.3125 11.875 C6.14671736 13.09781157 7.98877051 14.09841437 10 15 C10 15.66 10 16.32 10 17 C10.66 17.33 11.32 17.66 12 18 C9 19 9 19 7.28125 18.25 C2.77469797 15.08750735 0.62212376 12.43888555 -1 7 C-1.25 3.625 -1.25 3.625 -1 1 C-0.67 0.67 -0.34 0.34 0 0 Z " fill="#36ACCE" transform="translate(25,31)"/>
<path d="M0 0 C0.66 0.33 1.32 0.66 2 1 C1.98839844 1.64066406 1.97679688 2.28132813 1.96484375 2.94140625 C1.91116881 8.08653222 2.11830422 12.93024924 3 18 C3.99 18.33 4.98 18.66 6 19 C5.67 22.3 5.34 25.6 5 29 C2.6120592 26.6120592 2.64618276 25.23091381 2 22 C1.34 21.34 0.68 20.68 0 20 C-0.33544832 17.34558282 -0.55780681 14.78960553 -0.6875 12.125 C-0.73455078 11.40441406 -0.78160156 10.68382812 -0.83007812 9.94140625 C-1.02585867 6.45587067 -1.15817975 3.32650123 0 0 Z " fill="#E98386" transform="translate(100,119)"/>
<path d="M0 0 C1 2 1 2 2 5 C3.25541557 7.51083114 4.50063488 7.87125446 7 9 C4.03821227 10.67110042 1.62928808 11.32682752 -1.75 11.625 C-2.54921875 11.69976562 -3.3484375 11.77453125 -4.171875 11.8515625 C-5.07679687 11.92503906 -5.07679687 11.92503906 -6 12 C-5.19024636 10.18627137 -4.37711979 8.37404826 -3.5625 6.5625 C-2.88380859 5.04849609 -2.88380859 5.04849609 -2.19140625 3.50390625 C-1 1 -1 1 0 0 Z " fill="#7B4585" transform="translate(80,187)"/>
<path d="M0 0 C0 0.33 0 0.66 0 1 C-1.08539063 1.12117188 -2.17078125 1.24234375 -3.2890625 1.3671875 C-4.73441404 1.53612469 -6.17972442 1.70541425 -7.625 1.875 C-8.33785156 1.95363281 -9.05070312 2.03226563 -9.78515625 2.11328125 C-14.08202185 2.62575146 -17.921207 3.46884427 -22 5 C-22 5.66 -22 6.32 -22 7 C-23.98 7.99 -23.98 7.99 -26 9 C-26.33 8.01 -26.66 7.02 -27 6 C-29.97 5.505 -29.97 5.505 -33 5 C-32.67 4.34 -32.34 3.68 -32 3 C-30.700625 3.061875 -29.40125 3.12375 -28.0625 3.1875 C-24.59063214 3.2036733 -22.02727095 2.78711694 -18.8125 1.5 C-12.72523941 -0.80709343 -6.41012777 -0.24619267 0 0 Z " fill="#F28482" transform="translate(187,36)"/>
<path d="M0 0 C0.33 0 0.66 0 1 0 C1.38103216 12.06601824 0.51171627 23.18895325 -2 35 C-2.33 35 -2.66 35 -3 35 C-3.0544452 32.79194476 -3.09299283 30.58349446 -3.125 28.375 C-3.14820313 27.14523438 -3.17140625 25.91546875 -3.1953125 24.6484375 C-3.00043919 21.00820406 -2.16542031 18.42562939 -1 15 C-0.71651979 12.35240178 -0.49835747 9.77718557 -0.375 7.125 C-0.33632812 6.43664062 -0.29765625 5.74828125 -0.2578125 5.0390625 C-0.16451834 3.35976754 -0.08121762 1.67992233 0 0 Z " fill="#EDB390" transform="translate(256,105)"/>
<path d="M0 0 C3 0 3 0 5 1 C4.34 2.32 3.68 3.64 3 5 C3.99 4.67 4.98 4.34 6 4 C6.5625 5.9375 6.5625 5.9375 7 8 C6.67 8.33 6.34 8.66 6 9 C6.66 9.66 7.32 10.32 8 11 C8 11.99 8 12.98 8 14 C5.45379062 13.6362558 4.31819607 13.42033309 2.734375 11.328125 C-0.54945055 4.3956044 -0.54945055 4.3956044 0 0 Z " fill="#8C65B6" transform="translate(211,72)"/>
<path d="M0 0 C1.33895632 1.66215268 2.67130142 3.32963607 4 5 C4.598125 5.70125 5.19625 6.4025 5.8125 7.125 C6.204375 7.74375 6.59625 8.3625 7 9 C6.67 9.99 6.34 10.98 6 12 C4.35 12.33 2.7 12.66 1 13 C-0.97387813 8.23947038 -1.0070238 5.03511899 0 0 Z " fill="#5D3669" transform="translate(111,166)"/>
<path d="M0 0 C1.485 0.99 1.485 0.99 3 2 C3 2.66 3 3.32 3 4 C3.99 4 4.98 4 6 4 C7.80230168 7.82989106 8.19622241 10.78121808 8 15 C7.34 15 6.68 15 6 15 C5.34 13.68 4.68 12.36 4 11 C3.01 11 2.02 11 1 11 C1.20625 10.29875 1.4125 9.5975 1.625 8.875 C2.07850357 5.39813928 1.27540277 3.22601877 0 0 Z " fill="#9152AC" transform="translate(227,68)"/>
<path d="M0 0 C-0.6273046 4.50284396 -2.39620149 8.24223673 -4.4375 12.25 C-4.75009766 12.88679687 -5.06269531 13.52359375 -5.38476562 14.1796875 C-7.74653518 18.87326759 -7.74653518 18.87326759 -10 20 C-9.67 17.69 -9.34 15.38 -9 13 C-8.34 13 -7.68 13 -7 13 C-7 11.68 -7 10.36 -7 9 C-6.34 8.67 -5.68 8.34 -5 8 C-5.061875 7.05125 -5.12375 6.1025 -5.1875 5.125 C-5.125625 4.09375 -5.06375 3.0625 -5 2 C-2 0 -2 0 0 0 Z " fill="#E6977D" transform="translate(250,150)"/>
<path d="M0 0 C5.15336805 5.15336805 6.03803814 14.39113955 6.0625 21.375 C6.041875 22.57125 6.02125 23.7675 6 25 C5.67 25 5.34 25 5 25 C4.67 22.36 4.34 19.72 4 17 C3.34 17 2.68 17 2 17 C0.7017874 11.23918159 -0.25706972 5.91260345 0 0 Z " fill="#885BA9" transform="translate(235,79)"/>
<path d="M0 0 C5.28 0.33 10.56 0.66 16 1 C16 1.33 16 1.66 16 2 C14.02 2 12.04 2 10 2 C10 2.99 10 3.98 10 5 C8.54257537 5.08096803 7.08387193 5.13917774 5.625 5.1875 C4.81289062 5.22230469 4.00078125 5.25710937 3.1640625 5.29296875 C2.44992188 5.19628906 1.73578125 5.09960938 1 5 C0.34 4.01 -0.32 3.02 -1 2 C-0.67 1.34 -0.34 0.68 0 0 Z " fill="#FA5C91" transform="translate(136,189)"/>
<path d="M0 0 C0.33 0.66 0.66 1.32 1 2 C5.026591 2.77434442 8.90386029 3.12412545 13 3 C13 3.66 13 4.32 13 5 C12.01 5 11.02 5 10 5 C11.62366466 8.24732932 14.75387839 8.70155136 18 10 C18 10.66 18 11.32 18 12 C15.04703576 11.37666027 12.72453208 10.43098208 10.109375 8.93359375 C9.40039062 8.53076172 8.69140625 8.12792969 7.9609375 7.71289062 C7.23132813 7.29201172 6.50171875 6.87113281 5.75 6.4375 C5.00492187 6.01275391 4.25984375 5.58800781 3.4921875 5.15039062 C1.65901039 4.10453958 -0.17082677 3.05283808 -2 2 C-1.34 1.34 -0.68 0.68 0 0 Z " fill="#E4689D" transform="translate(118,49)"/>
<path d="M0 0 C0.33 0 0.66 0 1 0 C1.14287139 5.9265028 1.28527606 11.85301656 1.42724609 17.77954102 C1.47561993 19.79614567 1.52412185 21.81274726 1.57275391 23.8293457 C1.64258874 26.72606626 1.71196466 29.6227975 1.78125 32.51953125 C1.80312378 33.42274612 1.82499756 34.325961 1.84753418 35.25654602 C1.86755493 36.09719101 1.88757568 36.937836 1.90820312 37.80395508 C1.92596802 38.54341873 1.94373291 39.28288239 1.96203613 40.04475403 C1.99410207 41.69623989 2 43.34820287 2 45 C1.34 45 0.68 45 0 45 C0 30.15 0 15.3 0 0 Z " fill="#963C9D" transform="translate(24,152)"/>
<path d="M0 0 C2.8125 1.5625 2.8125 1.5625 5 3 C3 4 1 5 -1 6 C-1.66 5.67 -2.32 5.34 -3 5 C-3.33 5.66 -3.66 6.32 -4 7 C-4.66 7 -5.32 7 -6 7 C-6.33 4.69 -6.66 2.38 -7 0 C-4.24779828 -1.37610086 -2.93781238 -0.81985462 0 0 Z " fill="#3842A3" transform="translate(70,70)"/>
<path d="M0 0 C0.66 0.33 1.32 0.66 2 1 C2.625 3.0625 2.625 3.0625 3 5 C-0.00194504 7.20731253 -1.4050723 8.046661 -5.1875 7.75 C-8 7 -8 7 -10 6 C-8.3811004 4.96951963 -6.75467511 3.95085322 -5.125 2.9375 C-4.22007813 2.36902344 -3.31515625 1.80054688 -2.3828125 1.21484375 C-1.20332031 0.61349609 -1.20332031 0.61349609 0 0 Z " fill="#7C59AB" transform="translate(91,144)"/>
<path d="M0 0 C1.4835001 0.42257276 2.96176424 0.86356322 4.4375 1.3125 C5.67306641 1.67794922 5.67306641 1.67794922 6.93359375 2.05078125 C7.61550781 2.36402344 8.29742187 2.67726563 9 3 C9.33 3.99 9.66 4.98 10 6 C11.98 6 13.96 6 16 6 C17.32 8.31 18.64 10.62 20 13 C19.34 13 18.68 13 18 13 C18 12.34 18 11.68 18 11 C17.278125 10.71125 16.55625 10.4225 15.8125 10.125 C13.20833333 9.08333333 10.60416667 8.04166667 8 7 C8 6.34 8 5.68 8 5 C7.05125 4.731875 6.1025 4.46375 5.125 4.1875 C2 3 2 3 0 0 Z " fill="#737ABB" transform="translate(113,95)"/>
<path d="M0 0 C1.65 0.33 3.3 0.66 5 1 C5 1.66 5 2.32 5 3 C7.97 3.99 10.94 4.98 14 6 C14 6.66 14 7.32 14 8 C14.99 8.33 15.98 8.66 17 9 C17 9.66 17 10.32 17 11 C13.97983116 9.90175679 11.29467705 8.60716375 8.5625 6.9375 C5.42553465 5.08696562 2.65569509 4.35665318 -1 4 C-0.01 3.34 0.98 2.68 2 2 C1.34 1.34 0.68 0.68 0 0 Z " fill="#61A0CD" transform="translate(72,71)"/>
<path d="M0 0 C0.33 0.66 0.66 1.32 1 2 C0.34 2 -0.32 2 -1 2 C-1.33 2.99 -1.66 3.98 -2 5 C-3.890625 6.3515625 -3.890625 6.3515625 -6.25 7.625 C-7.01828125 8.05039063 -7.7865625 8.47578125 -8.578125 8.9140625 C-11.05871929 10.02632897 -13.32315197 10.5728434 -16 11 C-16 11.99 -16 12.98 -16 14 C-17.32 13.34 -18.64 12.68 -20 12 C-17.4345406 9.4345406 -15.52313332 9.45953913 -12 9 C-12 8.34 -12 7.68 -12 7 C-11.46890625 6.74605469 -10.9378125 6.49210938 -10.390625 6.23046875 C-6.6675828 4.41650476 -3.20237785 2.6686482 0 0 Z " fill="#E87D82" transform="translate(213,179)"/>
<path d="M0 0 C2.64 0.33 5.28 0.66 8 1 C4.19752197 4.226345 0.44929561 6.77535219 -4 9 C-4.99 8.67 -5.98 8.34 -7 8 C-6.38125 7.54625 -5.7625 7.0925 -5.125 6.625 C-2.30956928 4.47202357 -1.13963806 3.41891419 0 0 Z " fill="#71548C" transform="translate(103,180)"/>
<path d="M0 0 C-1.41553697 4.29302197 -3.51000523 7.00522236 -6.5625 10.3125 C-7.36816406 11.19550781 -8.17382812 12.07851562 -9.00390625 12.98828125 C-9.66261719 13.65214844 -10.32132813 14.31601563 -11 15 C-11.33 15 -11.66 15 -12 15 C-12 13.02 -12 11.04 -12 9 C-10.02 8.67 -8.04 8.34 -6 8 C-6 6.68 -6 5.36 -6 4 C-5.34 4 -4.68 4 -4 4 C-4 3.01 -4 2.02 -4 1 C-2 0 -2 0 0 0 Z " fill="#EB9990" transform="translate(240,170)"/>
<path d="M0 0 C2.97 0.495 2.97 0.495 6 1 C3.39158815 3.93446333 0.36193398 5.75591171 -3 7.75 C-4.051875 8.38421875 -5.10375 9.0184375 -6.1875 9.671875 C-9 11 -9 11 -12 10 C-10.68 9.34 -9.36 8.68 -8 8 C-8 7.34 -8 6.68 -8 6 C-6.865625 5.566875 -5.73125 5.13375 -4.5625 4.6875 C-2.7990625 3.8521875 -2.7990625 3.8521875 -1 3 C-0.67 2.01 -0.34 1.02 0 0 Z " fill="#627CD1" transform="translate(159,148)"/>
<path d="M0 0 C2.70364214 1.43133995 3.78643999 2.43559139 4.875 5.3125 C5.02782608 8.59826082 4.20099903 10.96217893 3 14 C0.23776722 11.23776722 0.42143709 8.79293383 0 5 C-0.66 5 -1.32 5 -2 5 C-2.33 3.68 -2.66 2.36 -3 1 C-2.01 0.67 -1.02 0.34 0 0 Z " fill="#251F3E" transform="translate(137,143)"/>
<path d="M0 0 C0.66 0 1.32 0 2 0 C2.05382106 2.62527189 2.09358313 5.24944713 2.125 7.875 C2.14175781 8.62136719 2.15851563 9.36773437 2.17578125 10.13671875 C2.1933959 12.09194461 2.10320189 14.04742021 2 16 C1.34 16.66 0.68 17.32 0 18 C-2.28571429 4.57142857 -2.28571429 4.57142857 0 0 Z " fill="#E89B5F" transform="translate(254,104)"/>
<path d="M0 0 C3.29292575 2.68790023 4.64891915 6.24244544 6.25 10.0625 C6.53101563 10.69994141 6.81203125 11.33738281 7.1015625 11.99414062 C7.80057532 13.63612867 8.40758203 15.31661513 9 17 C8.67 17.66 8.34 18.32 8 19 C4.280666 15.82762688 3.07705288 13.0407494 1.75 8.375 C1.41484375 7.22773437 1.0796875 6.08046875 0.734375 4.8984375 C0 2 0 2 0 0 Z " fill="#EBAF77" transform="translate(242,61)"/>
<path d="M0 0 C1.32 0 2.64 0 4 0 C4 0.66 4 1.32 4 2 C4.99 1.67 5.98 1.34 7 1 C7 1.66 7 2.32 7 3 C9.31 3.66 11.62 4.32 14 5 C14 5.66 14 6.32 14 7 C14.66 7 15.32 7 16 7 C16 7.66 16 8.32 16 9 C12.00151231 8.41748651 9.18696162 7.16686722 5.75 5.0625 C4.87859375 4.53785156 4.0071875 4.01320313 3.109375 3.47265625 C1 2 1 2 0 0 Z " fill="#3B9DD4" transform="translate(35,49)"/>
<path d="M0 0 C3.61941735 1.50239966 6.7321794 2.82145293 10 5 C9.67 5.66 9.34 6.32 9 7 C8.34 6.67 7.68 6.34 7 6 C7 6.66 7 7.32 7 8 C7.66 8 8.32 8 9 8 C8.67 8.99 8.34 9.98 8 11 C6.33333333 9.33333333 4.66666667 7.66666667 3 6 C2.401875 5.46375 1.80375 4.9275 1.1875 4.375 C0 3 0 3 0 0 Z " fill="#E16E89" transform="translate(121,179)"/>
<path d="M0 0 C0.99 0.33 1.98 0.66 3 1 C3.99 0.67 4.98 0.34 6 0 C6 2.75 6 2.75 5 6 C2.49568941 7.74719343 -0.15951732 8.90004088 -3 10 C-2.69201674 8.51988629 -2.378482 7.04092675 -2.0625 5.5625 C-1.88847656 4.73878906 -1.71445313 3.91507813 -1.53515625 3.06640625 C-1 1 -1 1 0 0 Z " fill="#F49667" transform="translate(246,144)"/>
<path d="M0 0 C4.2002771 0.90523213 7.57966461 2.90282094 11.25 5.0625 C11.8996875 5.43955078 12.549375 5.81660156 13.21875 6.20507812 C14.81505091 7.13234115 16.40787529 8.06558456 18 9 C16.1875 9.625 16.1875 9.625 14 10 C13.01 9.34 12.02 8.68 11 8 C8.67891331 7.29187186 6.34622853 6.61975848 4 6 C4 5.01 4 4.02 4 3 C2.68 2.67 1.36 2.34 0 2 C0 1.34 0 0.68 0 0 Z " fill="#6586D2" transform="translate(170,82)"/>
<path d="M0 0 C0.4846875 0.37511719 0.969375 0.75023437 1.46875 1.13671875 C6.1555558 4.71491472 10.94671516 7.96265326 16 11 C15.01 11.66 14.02 12.32 13 13 C13 12.34 13 11.68 13 11 C12.236875 10.87625 11.47375 10.7525 10.6875 10.625 C8 10 8 10 5 8 C5 7.34 5 6.68 5 6 C4.01 6 3.02 6 2 6 C1.34 4.02 0.68 2.04 0 0 Z " fill="#E8B274" transform="translate(150,174)"/>
<path d="M0 0 C0.66 0 1.32 0 2 0 C2.66 0.99 3.32 1.98 4 3 C5.32 2.67 6.64 2.34 8 2 C8 4.31 8 6.62 8 9 C6.68 9 5.36 9 4 9 C0 2.25 0 2.25 0 0 Z " fill="#995AB1" transform="translate(203,62)"/>
<path d="M0 0 C1.32 0.33 2.64 0.66 4 1 C2.68 1.33 1.36 1.66 0 2 C0 1.34 0 0.68 0 0 Z M-4 2 C-2.68 2.33 -1.36 2.66 0 3 C-0.33 4.98 -0.66 6.96 -1 9 C-3.07553648 9.5534764 -4.84365964 10 -7 10 C-7 8.68 -7 7.36 -7 6 C-6.34 5.67 -5.68 5.34 -5 5 C-4.67 4.01 -4.34 3.02 -4 2 Z " fill="#28BBC2" transform="translate(35,14)"/>
<path d="M0 0 C0.66 0.33 1.32 0.66 2 1 C0.46620188 2.44589269 -1.07743855 3.88134804 -2.625 5.3125 C-3.48351562 6.11300781 -4.34203125 6.91351563 -5.2265625 7.73828125 C-8.04609227 10.03758792 -10.63747202 11.62013908 -14 13 C-14.66 12.67 -15.32 12.34 -16 12 C-12.14288332 8.46523601 -8.93146275 5.86595888 -4 4 C-1.72808584 1.97959252 -1.72808584 1.97959252 0 0 Z " fill="#8F83A3" transform="translate(217,173)"/>
<path d="M0 0 C1.32 0.33 2.64 0.66 4 1 C4.33 2.65 4.66 4.3 5 6 C3.3125 7.5625 3.3125 7.5625 1 9 C-1.75 8.6875 -1.75 8.6875 -4 8 C-3.2884375 7.13375 -3.2884375 7.13375 -2.5625 6.25 C-1.0515133 4.07417916 -0.45963849 2.57397552 0 0 Z " fill="#3D8BDA" transform="translate(206,159)"/>
<path d="M0 0 C1.32 0.33 2.64 0.66 4 1 C4 4 4 4 2.35546875 5.75390625 C1.28232422 6.64916016 1.28232422 6.64916016 0.1875 7.5625 C-0.52019531 8.16191406 -1.22789062 8.76132812 -1.95703125 9.37890625 C-4 11 -4 11 -7 13 C-6.49259538 8.60249328 -3.91706686 6.13051078 -1 3 C-0.34 3 0.32 3 1 3 C0.67 2.01 0.34 1.02 0 0 Z " fill="#E58097" transform="translate(155,43)"/>
<path d="M0 0 C4 4.5 4 4.5 4 9 C5.32 9.33 6.64 9.66 8 10 C8.33 11.65 8.66 13.3 9 15 C8.1028125 14.2265625 8.1028125 14.2265625 7.1875 13.4375 C6.465625 12.963125 5.74375 12.48875 5 12 C4.01 12.33 3.02 12.66 2 13 C2 10.03 2 7.06 2 4 C1.01 3.67 0.02 3.34 -1 3 C-0.67 2.01 -0.34 1.02 0 0 Z " fill="#F4A253" transform="translate(234,51)"/>
<path d="M0 0 C4.61513112 1.31860889 8.09897612 3.21355437 12 6 C8.94736336 6.98120464 7.05263664 6.98120464 4 6 C3.01 7.485 3.01 7.485 2 9 C1.34 6.03 0.68 3.06 0 0 Z " fill="#5CACCE" transform="translate(81,30)"/>
<path d="M0 0 C2.97 0.495 2.97 0.495 6 1 C6.33 1.99 6.66 2.98 7 4 C0.73 4 -5.54 4 -12 4 C-12 3.67 -12 3.34 -12 3 C-11.21753906 2.95101562 -10.43507812 2.90203125 -9.62890625 2.8515625 C-8.61699219 2.77679688 -7.60507813 2.70203125 -6.5625 2.625 C-5.55316406 2.55539063 -4.54382813 2.48578125 -3.50390625 2.4140625 C-2.26447266 2.20910156 -2.26447266 2.20910156 -1 2 C-0.67 1.34 -0.34 0.68 0 0 Z " fill="#FCA853" transform="translate(157,184)"/>
<path d="M0 0 C4 1 4 1 6 3 C4.35 3 2.7 3 1 3 C0.67 4.65 0.34 6.3 0 8 C0.66 8 1.32 8 2 8 C1.6875 9.875 1.6875 9.875 1 12 C0.01 12.66 -0.98 13.32 -2 14 C-1.34 9.38 -0.68 4.76 0 0 Z " fill="#F76989" transform="translate(103,92)"/>
<path d="M0 0 C0.66 0.33 1.32 0.66 2 1 C0.625 3.5 0.625 3.5 -1 6 C-1.66 6 -2.32 6 -3 6 C-3 6.66 -3 7.32 -3 8 C-4.65 8 -6.3 8 -8 8 C-8.33 7.01 -8.66 6.02 -9 5 C-6.69 4.34 -4.38 3.68 -2 3 C-2 2.34 -2 1.68 -2 1 C-1.34 0.67 -0.68 0.34 0 0 Z " fill="#E17598" transform="translate(146,56)"/>
<path d="M0 0 C2.375 0.25 2.375 0.25 5 1 C6.375 2.8125 6.375 2.8125 7 5 C6.625 7.25 6.625 7.25 6 9 C5.34 8.34 4.68 7.68 4 7 C3.34 7.66 2.68 8.32 2 9 C0 3.375 0 3.375 0 0 Z M2 3 C3 5 3 5 3 5 Z " fill="#4470E4" transform="translate(194,98)"/>
<path d="M0 0 C0.66 0 1.32 0 2 0 C1.39254603 4.85963179 -0.72758967 8.7405518 -3 13 C-3.33 13 -3.66 13 -4 13 C-4.5497272 7.36529617 -2.95047835 4.61012242 0 0 Z " fill="#1D2552" transform="translate(144,146)"/>
<path d="M0 0 C0.66 0 1.32 0 2 0 C2 0.66 2 1.32 2 2 C5.3 2.33 8.6 2.66 12 3 C9.08235 4.9451 7.37462715 5.45276317 4 6 C4 5.67 4 5.34 4 5 C2.02 4.34 0.04 3.68 -2 3 C-1.34 2.67 -0.68 2.34 0 2 C0 1.34 0 0.68 0 0 Z " fill="#B957AD" transform="translate(42,211)"/>
<path d="M0 0 C4.59624818 0.91924964 8.82590883 2.91295441 13 5 C12.67 5.33 12.34 5.66 12 6 C10.0390625 5.984375 10.0390625 5.984375 7.625 5.75 C6.83351562 5.68296875 6.04203125 5.6159375 5.2265625 5.546875 C2.61923279 4.90647823 1.62109791 4.11265663 0 2 C0 1.34 0 0.68 0 0 Z " fill="#DF7192" transform="translate(143,197)"/>
<path d="M0 0 C0.33 0 0.66 0 1 0 C1.38999191 7.59762024 0.60758587 13.84466021 -2 21 C-2.33 21 -2.66 21 -3 21 C-3.18334023 16.32482415 -2.73272093 13.28083995 -1 9 C-0.53962539 6.01009455 -0.249542 3.01420463 0 0 Z " fill="#16306A" transform="translate(149,125)"/>
<path d="M0 0 C-0.33 1.32 -0.66 2.64 -1 4 C-1.66 4 -2.32 4 -3 4 C-3.12375 4.804375 -3.2475 5.60875 -3.375 6.4375 C-3.58125 7.283125 -3.7875 8.12875 -4 9 C-4.99 9.495 -4.99 9.495 -6 10 C-6.125 3.25 -6.125 3.25 -5 1 C-2 0 -2 0 0 0 Z " fill="#4F6ACE" transform="translate(224,132)"/>
<path d="M0 0 C3.94085545 3.54676991 5.83365355 6.5347456 6.1953125 11.89453125 C6.16050781 13.33892578 6.16050781 13.33892578 6.125 14.8125 C6.10695312 15.78832031 6.08890625 16.76414062 6.0703125 17.76953125 C6.03550781 18.87361328 6.03550781 18.87361328 6 20 C5.67 20 5.34 20 5 20 C4.95101562 19.38511719 4.90203125 18.77023438 4.8515625 18.13671875 C4.77679688 17.32847656 4.70203125 16.52023438 4.625 15.6875 C4.55539063 14.88699219 4.48578125 14.08648437 4.4140625 13.26171875 C4.10435574 10.72775559 4.10435574 10.72775559 2 8 C0.67516316 5.05591813 0 3.25710538 0 0 Z " fill="#8090CE" transform="translate(199,99)"/>
<path d="M0 0 C2.97 0.495 2.97 0.495 6 1 C6 2.32 6 3.64 6 5 C7.32 5.33 8.64 5.66 10 6 C9.67 6.66 9.34 7.32 9 8 C5.6470016 6.82191948 3.2447471 5.80593388 1 3 C0.67 2.01 0.34 1.02 0 0 Z " fill="#5885D2" transform="translate(131,104)"/>
<path d="M0 0 C2.64 0.66 5.28 1.32 8 2 C8.33 3.32 8.66 4.64 9 6 C7.6078125 5.7215625 7.6078125 5.7215625 6.1875 5.4375 C2.98656229 4.75876119 2.98656229 4.75876119 0 6 C0 4.02 0 2.04 0 0 Z " fill="#4376E6" transform="translate(181,90)"/>
<path d="M0 0 C-2.3432476 2.71323406 -4.53295129 4.0465616 -8 5 C-8.99 4.34 -9.98 3.68 -11 3 C-7.74003139 -0.25996861 -4.40088745 -1.46696248 0 0 Z " fill="#617DD6" transform="translate(174,144)"/>
<path d="M0 0 C4.41889613 1.35021826 6.34345343 3.26115668 9 7 C4.48521602 6.46884894 1.65333143 4.63379708 -2 2 C-1.34 1.34 -0.68 0.68 0 0 Z " fill="#3A9CD8" transform="translate(54,58)"/>
<path d="M0 0 C0.99 0.33 1.98 0.66 3 1 C0.03 3.64 -2.94 6.28 -6 9 C-6.33 7.68 -6.66 6.36 -7 5 C-6.030625 4.360625 -5.06125 3.72125 -4.0625 3.0625 C-1.23963731 1.3034741 -1.23963731 1.3034741 0 0 Z " fill="#E59394" transform="translate(224,186)"/>
<path d="M0 0 C2.52588702 2.36292656 3.88820837 3.66462511 5 7 C4.54358928 9.43419051 3.78508824 11.64473528 3 14 C2.71125 12.88625 2.4225 11.7725 2.125 10.625 C1.30758671 6.99708908 1.30758671 6.99708908 -1 5 C-0.625 2.375 -0.625 2.375 0 0 Z " fill="#DF7F77" transform="translate(101,134)"/>
<path d="M0 0 C0.66 0 1.32 0 2 0 C2.33 2.64 2.66 5.28 3 8 C1.35 8.66 -0.3 9.32 -2 10 C-1.34 6.7 -0.68 3.4 0 0 Z " fill="#4275EE" transform="translate(151,134)"/>
<path d="M0 0 C0.99 0.66 1.98 1.32 3 2 C3 3.66666667 3 5.33333333 3 7 C0.33333333 7 -2.33333333 7 -5 7 C-4.67 6.01 -4.34 5.02 -4 4 C-2.02 4.495 -2.02 4.495 0 5 C0 3.35 0 1.7 0 0 Z " fill="#419EDE" transform="translate(111,47)"/>
<path d="M0 0 C4.67105792 1.55701931 8.08705685 4.08447373 12 7 C9 8 9 8 6.8125 7.0625 C6.214375 6.711875 5.61625 6.36125 5 6 C5 5.34 5 4.68 5 4 C4.360625 3.896875 3.72125 3.79375 3.0625 3.6875 C2.381875 3.460625 1.70125 3.23375 1 3 C0.67 2.01 0.34 1.02 0 0 Z " fill="#E7AE7F" transform="translate(209,28)"/>
<path d="M0 0 C0.99 0.33 1.98 0.66 3 1 C4.32 1 5.64 1 7 1 C6.01 2.485 6.01 2.485 5 4 C4.34 4 3.68 4 3 4 C2.67 5.65 2.34 7.3 2 9 C0.4375 7.3125 0.4375 7.3125 -1 5 C-0.6875 2.25 -0.6875 2.25 0 0 Z " fill="#5550A5" transform="translate(63,75)"/>
<path d="M0 0 C3.96 0.33 7.92 0.66 12 1 C11.01 1.495 11.01 1.495 10 2 C10 2.66 10 3.32 10 4 C8.02 4.99 8.02 4.99 6 6 C5.67 5.01 5.34 4.02 5 3 C2.03 2.505 2.03 2.505 -1 2 C-0.67 1.34 -0.34 0.68 0 0 Z " fill="#ED898C" transform="translate(155,39)"/>
<path d="M0 0 C0.33 1.32 0.66 2.64 1 4 C-1.64 6.31 -4.28 8.62 -7 11 C-7.66 10.67 -8.32 10.34 -9 10 C-8.27683594 9.29423828 -8.27683594 9.29423828 -7.5390625 8.57421875 C-6.90742188 7.95160156 -6.27578125 7.32898438 -5.625 6.6875 C-4.68527344 5.76517578 -4.68527344 5.76517578 -3.7265625 4.82421875 C-1.81913393 2.91187472 -1.81913393 2.91187472 0 0 Z " fill="#6EA3C5" transform="translate(205,159)"/>
<path d="M0 0 C0.66 0.33 1.32 0.66 2 1 C-0.10618315 3.94865641 -2.39391727 6.4837822 -5 9 C-5.99 8.34 -6.98 7.68 -8 7 C-5.36 4.69 -2.72 2.38 0 0 Z " fill="#E78D97" transform="translate(135,32)"/>
<path d="M0 0 C0 1.32 0 2.64 0 4 C-3.63 4 -7.26 4 -11 4 C-9.71264403 1.42528807 -8.71510189 1.29583343 -6.0625 0.3125 C-5.35222656 0.04050781 -4.64195312 -0.23148438 -3.91015625 -0.51171875 C-2 -1 -2 -1 0 0 Z " fill="#EB9691" transform="translate(155,24)"/>
<path d="M0 0 C1 2 1 2 0.5 4.5 C-1 7 -1 7 -4.625 8.3125 C-5.73875 8.539375 -6.8525 8.76625 -8 9 C-7.04270084 7.87411986 -6.08412105 6.7493285 -5.125 5.625 C-4.59132812 4.99851563 -4.05765625 4.37203125 -3.5078125 3.7265625 C-2.38567993 2.44163349 -1.20628025 1.20628025 0 0 Z " fill="#E18381" transform="translate(222,170)"/>
<path d="M0 0 C3 1.25 3 1.25 5 4.25 C3.02 4.25 1.04 4.25 -1 4.25 C-1.33 3.26 -1.66 2.27 -2 1.25 C-2.99 0.92 -3.98 0.59 -5 0.25 C-3 -0.75 -3 -0.75 0 0 Z " fill="#4272E7" transform="translate(161,144.75)"/>
<path d="M0 0 C2.16099373 2.16099373 2.71563716 3.5210418 3.6875 6.375 C3.95949219 7.14585938 4.23148438 7.91671875 4.51171875 8.7109375 C5.04278009 11.20055308 4.81115526 12.61553018 4 15 C0.95842058 9.77228537 -0.50610724 6.07328688 0 0 Z " fill="#A0618E" transform="translate(235,79)"/>
<path d="M0 0 C1.32 0 2.64 0 4 0 C4.33 0.66 4.66 1.32 5 2 C7.32671865 3.01529541 9.6603447 4.01488198 12 5 C12.66 5.66 13.32 6.32 14 7 C8.39958947 6.57996921 4.411509 4.31423011 0 1 C0 0.67 0 0.34 0 0 Z " fill="#828DC4" transform="translate(133,61)"/>
<path d="M0 0 C0.66 1.32 1.32 2.64 2 4 C-0.61941217 5.74627478 -2.03824877 6.38722388 -5 7 C-5 7.66 -5 8.32 -5 9 C-5.66 8.67 -6.32 8.34 -7 8 C-4.69 5.36 -2.38 2.72 0 0 Z " fill="#E68798" transform="translate(126,40)"/>
<path d="M0 0 C2.31 0.33 4.62 0.66 7 1 C3.67692308 4.93846154 3.67692308 4.93846154 0.25 5.25 C-0.4925 5.1675 -1.235 5.085 -2 5 C-1.34 4.01 -0.68 3.02 0 2 C0 1.34 0 0.68 0 0 Z " fill="#A84B9A" transform="translate(52,209)"/>
<path d="M0 0 C4.97306516 0.49730652 8.63799813 1.55302334 13 4 C9.71023192 5.09658936 8.28696233 4.79953138 5 4 C5 3.34 5 2.68 5 2 C3.35 1.67 1.7 1.34 0 1 C0 0.67 0 0.34 0 0 Z " fill="#E3AB78" transform="translate(195,23)"/>
<path d="M0 0 C3.29714793 0.32971479 4.6226839 0.6226839 7 3 C3.25 4.125 3.25 4.125 1 3 C0.34 3.99 -0.32 4.98 -1 6 C-1.625 4.125 -1.625 4.125 -2 2 C-1.34 1.34 -0.68 0.68 0 0 Z " fill="#49B2C7" transform="translate(59,18)"/>
<path d="M0 0 C0.33 0.66 0.66 1.32 1 2 C-0.38542316 5.62848922 -1.84351662 8.76527494 -4 12 C-4.66 11.67 -5.32 11.34 -6 11 C-5.18993474 9.35296694 -4.3768779 7.70740494 -3.5625 6.0625 C-3.11003906 5.14597656 -2.65757813 4.22945312 -2.19140625 3.28515625 C-1 1 -1 1 0 0 Z " fill="#7D368F" transform="translate(80,187)"/>
<path d="M0 0 C2.35171131 0.59861742 4.6859378 1.26924352 7 2 C7.33 2.66 7.66 3.32 8 4 C6.02 4.66 4.04 5.32 2 6 C2 4.68 2 3.36 2 2 C1.34 2 0.68 2 0 2 C0 1.34 0 0.68 0 0 Z " fill="#F45C92" transform="translate(128,185)"/>
<path d="M0 0 C-0.55728913 3.34373475 -1.35173889 6.03312999 -3 9 C-3.33 9 -3.66 9 -4 9 C-4.33 6.69 -4.66 4.38 -5 2 C-2 0 -2 0 0 0 Z " fill="#E9A281" transform="translate(250,150)"/>
<path d="M0 0 C3.99500618 1.3697164 6.80009492 3.25722422 10 6 C5.70558202 6 4.37867647 5.46552067 1 3 C0.67 2.01 0.34 1.02 0 0 Z " fill="#6C97CF" transform="translate(152,71)"/>
<path d="M0 0 C3.25524265 3.02272532 5.61820737 6.25718301 8 10 C7.67 10.66 7.34 11.32 7 12 C6.01 11.67 5.02 11.34 4 11 C2.2470538 7.42668659 0.78230674 3.91153372 0 0 Z " fill="#E9B389" transform="translate(234,49)"/>
<path d="M0 0 C3.94805407 1.85841157 6.77572279 4.06232521 10 7 C10.33 7.99 10.66 8.98 11 10 C5.36310966 8.67367286 3.06814317 4.53368235 0 0 Z " fill="#F8A15C" transform="translate(212,45)"/>
<path d="M0 0 C0.721875 0.144375 1.44375 0.28875 2.1875 0.4375 C3.5796875 0.7159375 3.5796875 0.7159375 5 1 C6.66666667 1.33333333 8.33333333 1.66666667 10 2 C9.67 2.99 9.34 3.98 9 5 C5.22454612 3.90931332 2.52956528 3.0916909 0 0 Z " fill="#6A9ECD" transform="translate(89,82)"/>
<path d="M0 0 C0.66 0 1.32 0 2 0 C2 0.66 2 1.32 2 2 C2.66 2 3.32 2 4 2 C4.33 4.64 4.66 7.28 5 10 C2.5 7.6875 2.5 7.6875 0 5 C0 3.33333333 0 1.66666667 0 0 Z " fill="#AA66B5" transform="translate(199,56)"/>
<path d="M0 0 C-4.75 2 -4.75 2 -7 2 C-7 2.99 -7 3.98 -7 5 C-8.32 4.34 -9.64 3.68 -11 3 C-7.74003139 -0.25996861 -4.40088745 -1.46696248 0 0 Z " fill="#F8727C" transform="translate(204,188)"/>
<path d="M0 0 C-1.39332574 3.36720387 -2.9789286 4.9859524 -6 7 C-6 5.02 -6 3.04 -6 1 C-3.92446352 0.4465236 -2.15634036 0 0 0 Z " fill="#E6897F" transform="translate(234,178)"/>
<path d="M0 0 C0.33 0 0.66 0 1 0 C1 2.64 1 5.28 1 8 C-0.32 8 -1.64 8 -3 8 C-3 7.01 -3 6.02 -3 5 C-2.34 5 -1.68 5 -1 5 C-0.67 3.35 -0.34 1.7 0 0 Z " fill="#FA787B" transform="translate(127,117)"/>
<path d="M0 0 C1.32 0 2.64 0 4 0 C5.32 2.31 6.64 4.62 8 7 C7.34 7 6.68 7 6 7 C6 6.34 6 5.68 6 5 C5.195625 4.731875 4.39125 4.46375 3.5625 4.1875 C2.716875 3.795625 1.87125 3.40375 1 3 C0.67 2.01 0.34 1.02 0 0 Z " fill="#697FC2" transform="translate(125,101)"/>
<path d="M0 0 C5.875 2.75 5.875 2.75 7 5 C5.02 5.33 3.04 5.66 1 6 C0.67 4.02 0.34 2.04 0 0 Z " fill="#3A85EB" transform="translate(153,74)"/>
<path d="M0 0 C1.65 0 3.3 0 5 0 C5 1.32 5 2.64 5 4 C2 4 2 4 0 3 C0 2.01 0 1.02 0 0 Z " fill="#A645AE" transform="translate(211,51)"/>
<path d="M0 0 C0 0.99 0 1.98 0 3 C-2.97 2.67 -5.94 2.34 -9 2 C-5.5647952 -0.29013653 -4.014669 -0.17842973 0 0 Z " fill="#B641A8" transform="translate(179,39)"/>
<path d="M0 0 C-1.37154504 2.95409701 -2.98863724 5.44008376 -5 8 C-5.66 6.68 -6.32 5.36 -7 4 C-2.25 0 -2.25 0 0 0 Z " fill="#ED7178" transform="translate(139,32)"/>
<path d="M0 0 C2.97 0.33 5.94 0.66 9 1 C9.33 1.99 9.66 2.98 10 4 C9.01 4 8.02 4 7 4 C7 3.34 7 2.68 7 2 C5.35 2.33 3.7 2.66 2 3 C1.34 2.01 0.68 1.02 0 0 Z " fill="#F49F53" transform="translate(200,27)"/>
<path d="M0 0 C-6.75 4 -6.75 4 -9 4 C-8.67 2.68 -8.34 1.36 -8 0 C-4.94736336 -0.98120464 -3.05263664 -0.98120464 0 0 Z " fill="#EA929C" transform="translate(213,198)"/>
<path d="M0 0 C1.485 0.99 1.485 0.99 3 2 C3 3.32 3 4.64 3 6 C1.68 6 0.36 6 -1 6 C-1.042721 4.33388095 -1.04063832 2.66617115 -1 1 C-0.67 0.67 -0.34 0.34 0 0 Z " fill="#FBA44D" transform="translate(120,171)"/>
<path d="M0 0 C0.66 0 1.32 0 2 0 C3.2890625 1.75 3.2890625 1.75 4.625 4 C5.07101563 4.7425 5.51703125 5.485 5.9765625 6.25 C6.31429687 6.8275 6.65203125 7.405 7 8 C4.50638429 6.79618552 2.31856917 5.54571278 0 4 C0 2.68 0 1.36 0 0 Z " fill="#E4AE86" transform="translate(143,166)"/>
<path d="M0 0 C1.65 0 3.3 0 5 0 C5.33 0.99 5.66 1.98 6 3 C4.68 3.99 3.36 4.98 2 6 C0 5 0 5 -1 3 C-0.01 2.67 0.98 2.34 2 2 C1.34 1.34 0.68 0.68 0 0 Z " fill="#8657B2" transform="translate(72,153)"/>
<path d="M0 0 C1.32 0.33 2.64 0.66 4 1 C3.67 2.65 3.34 4.3 3 6 C2.01 6 1.02 6 0 6 C0 4.02 0 2.04 0 0 Z " fill="#436EF3" transform="translate(197,120)"/>
<path d="M0 0 C0.99 0.33 1.98 0.66 3 1 C4.05404945 4.98196457 3.84098656 7.98195309 3 12 C2.67 12 2.34 12 2 12 C1.34 8.04 0.68 4.08 0 0 Z " fill="#A489D0" transform="translate(217,90)"/>
<path d="M0 0 C2.34914492 2.34914492 2.73140357 3.95679446 3.625 7.125 C3.88539063 8.03507812 4.14578125 8.94515625 4.4140625 9.8828125 C4.70410156 10.93082031 4.70410156 10.93082031 5 12 C2.69857565 10.21825212 1.19965609 8.83695835 0.51171875 5.953125 C0.27676898 3.9753389 0.13248542 1.98728128 0 0 Z " fill="#E5AD86" transform="translate(246,68)"/>
<path d="M0 0 C0.33 0.66 0.66 1.32 1 2 C1.928125 2.2165625 1.928125 2.2165625 2.875 2.4375 C5.36710392 3.09717457 6.3329446 4.08288629 8 6 C3.75354935 6 1.61475228 4.18249194 -2 2 C-1.34 1.34 -0.68 0.68 0 0 Z " fill="#C979B4" transform="translate(118,49)"/>
<path d="M0 0 C0.66 0.33 1.32 0.66 2 1 C-1.32307692 5.8 -1.32307692 5.8 -4.75 6.8125 C-5.4925 6.874375 -6.235 6.93625 -7 7 C-4.66666667 4.66666667 -2.33333333 2.33333333 0 0 Z " fill="#7A89AB" transform="translate(208,179)"/>
<path d="M0 0 C2.31 0.66 4.62 1.32 7 2 C6.01 2.99 5.02 3.98 4 5 C1.525 4.01 1.525 4.01 -1 3 C-0.67 2.01 -0.34 1.02 0 0 Z " fill="#3E9BD3" transform="translate(199,179)"/>
<path d="M0 0 C2.475 0.99 2.475 0.99 5 2 C5 3.32 5 4.64 5 6 C3.68 5.67 2.36 5.34 1 5 C0.67 3.35 0.34 1.7 0 0 Z " fill="#DB9B77" transform="translate(138,160)"/>
<path d="M0 0 C0.99 0 1.98 0 3 0 C3 1.32 3 2.64 3 4 C2.34 4 1.68 4 1 4 C1 4.66 1 5.32 1 6 C0.34 6 -0.32 6 -1 6 C-1.625 4.125 -1.625 4.125 -2 2 C-1.34 1.34 -0.68 0.68 0 0 Z " fill="#FA9660" transform="translate(134,156)"/>
<path d="M0 0 C0.99 0.33 1.98 0.66 3 1 C2.67 2.32 2.34 3.64 2 5 C1.01 5 0.02 5 -1 5 C-1.33 4.34 -1.66 3.68 -2 3 C-1.34 2.01 -0.68 1.02 0 0 Z " fill="#4582E3" transform="translate(215,149)"/>
<path d="M0 0 C0.99 0 1.98 0 3 0 C3 1.65 3 3.3 3 5 C3.66 5 4.32 5 5 5 C4.67 6.32 4.34 7.64 4 9 C1.49701566 6.06171403 0.53069061 3.82097239 0 0 Z " fill="#E1997A" transform="translate(116,172)"/>
<path d="M0 0 C0 0.99 0 1.98 0 3 C-2.5 4.6875 -2.5 4.6875 -5 6 C-5.66 5.34 -6.32 4.68 -7 4 C-6.01 4 -5.02 4 -4 4 C-3.67 3.01 -3.34 2.02 -3 1 C-2.01 0.67 -1.02 0.34 0 0 Z " fill="#5D87C0" transform="translate(222,168)"/>
<path d="M0 0 C1.32 0 2.64 0 4 0 C4 0.66 4 1.32 4 2 C4.99 2.33 5.98 2.66 7 3 C7 3.66 7 4.32 7 5 C2.25 3.125 2.25 3.125 0 2 C0 1.34 0 0.68 0 0 Z " fill="#5B9AC7" transform="translate(82,77)"/>
<path d="M0 0 C3 0 3 0 5 1 C4.01 2.98 3.02 4.96 2 7 C0 5 0 5 -0.125 2.375 C-0.08375 1.59125 -0.0425 0.8075 0 0 Z " fill="#8E59AF" transform="translate(211,72)"/>
<path d="M0 0 C1.875 0.3125 1.875 0.3125 4 1 C4.66 1.99 5.32 2.98 6 4 C4.02 4.33 2.04 4.66 0 5 C0 3.35 0 1.7 0 0 Z " fill="#AE499A" transform="translate(209,47)"/>
<path d="M0 0 C2.95409701 1.37154504 5.44008376 2.98863724 8 5 C7.01 5.33 6.02 5.66 5 6 C5 5.34 5 4.68 5 4 C3.35 3.67 1.7 3.34 0 3 C0 2.01 0 1.02 0 0 Z " fill="#EAC085" transform="translate(158,181)"/>
<path d="M0 0 C0.33 0.99 0.66 1.98 1 3 C1.66 3 2.32 3 3 3 C3 3.66 3 4.32 3 5 C3.66 5 4.32 5 5 5 C4.67 5.66 4.34 6.32 4 7 C2.0625 6.25 2.0625 6.25 0 5 C-0.8125 2.9375 -0.8125 2.9375 -1 1 C-0.67 0.67 -0.34 0.34 0 0 Z " fill="#7F54A0" transform="translate(65,146)"/>
<path d="M0 0 C1.98 0 3.96 0 6 0 C6.33 1.32 6.66 2.64 7 4 C4.49642139 3.1654738 2.33214148 2.20628008 0 1 C0 0.67 0 0.34 0 0 Z " fill="#EE6C81" transform="translate(154,41)"/>
<path d="M0 0 C0 0.66 0 1.32 0 2 C-3.96 1.67 -7.92 1.34 -12 1 C-12 0.67 -12 0.34 -12 0 C-10.37585622 -0.19477739 -8.75063577 -0.38059458 -7.125 -0.5625 C-6.22007812 -0.66691406 -5.31515625 -0.77132812 -4.3828125 -0.87890625 C-2 -1 -2 -1 0 0 Z " fill="#FC946E" transform="translate(191,35)"/>
</svg>
